<?xml version="1.0" encoding="UTF-8"?>
<svg version="1.1" xmlns="http://www.w3.org/2000/svg" width="1024" height="1024">
<path d="M0 0 C337.92 0 675.84 0 1024 0 C1024 337.92 1024 675.84 1024 1024 C686.08 1024 348.16 1024 0 1024 C0 686.08 0 348.16 0 0 Z " fill="#FDFDFD" transform="translate(0,0)"/>
<path d="M0 0 C1.43662356 -0.01152806 2.87320402 -0.03199342 4.30957031 -0.06152344 C14.13785735 -0.26226093 22.4681749 0.89514555 31.78515625 4.29516602 C33.63514189 4.85094471 35.48871048 5.39513513 37.34765625 5.92016602 C39.58604241 6.56186188 41.5590788 7.17317133 43.609375 8.27954102 C46.65853761 9.70284852 49.74338773 10.24962058 53.03515625 10.92016602 C54.2984375 11.18055664 55.56171875 11.44094727 56.86328125 11.70922852 C58.30960938 11.99926758 58.30960938 11.99926758 59.78515625 12.29516602 C59.78515625 12.62516602 59.78515625 12.95516602 59.78515625 13.29516602 C53.84515625 13.29516602 47.90515625 13.29516602 41.78515625 13.29516602 C41.78515625 13.62516602 41.78515625 13.95516602 41.78515625 14.29516602 C35.58410813 14.57076815 29.85331147 13.52415948 23.78515625 12.29516602 C23.78515625 11.63516602 23.78515625 10.97516602 23.78515625 10.29516602 C24.44515625 10.29516602 25.10515625 10.29516602 25.78515625 10.29516602 C25.78515625 9.63516602 25.78515625 8.97516602 25.78515625 8.29516602 C21.85302653 7.98426405 17.92037185 7.68133123 13.98706055 7.38574219 C11.99170003 7.23411317 9.99682084 7.07619307 8.00195312 6.91821289 C6.74833984 6.82475586 5.49472656 6.73129883 4.203125 6.63500977 C3.04578857 6.54598389 1.88845215 6.45695801 0.69604492 6.36523438 C-2.28135217 6.12902135 -2.28135217 6.12902135 -5.21484375 7.29516602 C-6.24609375 7.25391602 -7.27734375 7.21266602 -8.33984375 7.17016602 C-12.35663815 7.29974003 -15.19493467 8.13164092 -18.90625 9.54125977 C-23.74580075 11.12168835 -28.61853443 11.43666471 -33.6796875 11.57641602 C-34.89205078 11.61379883 -36.10441406 11.65118164 -37.35351562 11.68969727 C-38.60712891 11.72450195 -39.86074219 11.75930664 -41.15234375 11.79516602 C-51.73091373 12.01958434 -51.73091373 12.01958434 -62.21484375 13.29516602 C-60.52681641 13.47692383 -60.52681641 13.47692383 -58.8046875 13.66235352 C-54.75830593 14.10141671 -50.71381607 14.55595532 -46.66992188 15.01733398 C-45.10393154 15.19455127 -43.53755453 15.36840639 -41.97070312 15.5378418 C-39.94662877 15.75791082 -37.92441479 15.99489284 -35.90234375 16.23266602 C-34.73058594 16.36543945 -33.55882812 16.49821289 -32.3515625 16.63500977 C-29.06774493 17.32612455 -27.02526188 18.5199105 -24.21484375 20.29516602 C-23.22484375 20.29516602 -22.23484375 20.29516602 -21.21484375 20.29516602 C-21.54484375 18.97516602 -21.87484375 17.65516602 -22.21484375 16.29516602 C-21.29960937 16.65610352 -20.384375 17.01704102 -19.44140625 17.38891602 C-18.25289063 17.85297852 -17.064375 18.31704102 -15.83984375 18.79516602 C-14.65648437 19.25922852 -13.473125 19.72329102 -12.25390625 20.20141602 C-9.43951935 21.40804395 -9.43951935 21.40804395 -7.21484375 21.29516602 C-7.87484375 20.65579102 -8.53484375 20.01641602 -9.21484375 19.35766602 C-11.21484375 17.29516602 -11.21484375 17.29516602 -11.21484375 16.29516602 C-9.77901374 16.18680149 -8.34082355 16.10940435 -6.90234375 16.04516602 C-6.10183594 15.99875977 -5.30132812 15.95235352 -4.4765625 15.90454102 C-3.73019531 16.03344727 -2.98382813 16.16235352 -2.21484375 16.29516602 C-1.81652344 16.91391602 -1.41820312 17.53266602 -1.0078125 18.17016602 C1.9079994 21.62594308 5.8502973 21.75567233 10.16015625 22.54516602 C11.43632813 22.80426758 11.43632813 22.80426758 12.73828125 23.06860352 C16.83881459 23.87338109 20.59990447 24.32729847 24.78515625 24.29516602 C25.86796875 25.03766602 25.86796875 25.03766602 26.97265625 25.79516602 C30.6515127 27.75722279 33.48356393 27.44473438 37.578125 27.20532227 C39.78515625 27.29516602 39.78515625 27.29516602 41.78515625 29.29516602 C43.85389659 29.93768952 43.85389659 29.93768952 45.78515625 30.29516602 C45.78515625 29.63516602 45.78515625 28.97516602 45.78515625 28.29516602 C46.44515625 28.29516602 47.10515625 28.29516602 47.78515625 28.29516602 C47.78515625 28.95516602 47.78515625 29.61516602 47.78515625 30.29516602 C48.45417969 30.33254883 49.12320312 30.36993164 49.8125 30.40844727 C61.04047923 31.17707403 72.71030406 32.52540541 83.30078125 36.48657227 C86.82067048 37.63219659 90.42480506 38.37128988 94.03515625 39.17016602 C113.17928809 43.49602375 113.17928809 43.49602375 117.3125 47.93579102 C119.46182536 49.91978366 121.09267907 49.52636222 123.97265625 49.48266602 C132.02056421 49.91450498 138.15518884 53.62355078 145.07836914 57.39916992 C148.30618321 59.09364534 151.43052506 60.21172338 154.97265625 61.04516602 C158.23565116 61.92801096 160.74955913 63.42470467 163.59765625 65.23266602 C167.86480079 67.91188388 171.89210334 69.48289746 176.75390625 70.75219727 C178.78515625 71.29516602 178.78515625 71.29516602 180.78515625 72.29516602 C171.19320356 63.60282761 171.19320356 63.60282761 159.78515625 58.29516602 C159.78515625 56.97516602 159.78515625 55.65516602 159.78515625 54.29516602 C159.00140625 54.06829102 158.21765625 53.84141602 157.41015625 53.60766602 C152.66214 51.88855668 148.26413073 49.61431881 143.78515625 47.29516602 C143.78515625 46.96516602 143.78515625 46.63516602 143.78515625 46.29516602 C151.20792033 45.7956903 157.56041738 45.86140465 163.78515625 50.29516602 C166.28317162 52.91254048 168.61161132 55.64492546 170.96484375 58.39282227 C173.95890376 61.6601583 177.37508927 64.04576931 181.09765625 66.42016602 C181.68442139 66.79810303 182.27118652 67.17604004 182.87573242 67.56542969 C186.19508836 69.60348107 189.00682576 70.55380685 192.78515625 71.29516602 C194.34765625 72.60766602 194.34765625 72.60766602 195.78515625 74.29516602 C198.92615974 77.64191209 202.37000707 80.23776693 206.16015625 82.79516602 C207.01601318 83.37802368 207.01601318 83.37802368 207.88916016 83.97265625 C210.28962822 85.60578406 212.69387106 87.23333263 215.09765625 88.86157227 C223.75797309 95.1435824 232.04434146 103.78672785 238.34814453 112.44091797 C239.713371 114.44131363 239.713371 114.44131363 242.03515625 115.60766602 C244.55705328 117.15519374 246.08680886 118.54938619 248.09765625 120.67016602 C252.6657125 125.3878311 257.92697844 128.424529 263.78515625 131.29516602 C263.45515625 132.28516602 263.12515625 133.27516602 262.78515625 134.29516602 C265.42515625 136.93516602 268.06515625 139.57516602 270.78515625 142.29516602 C271.77515625 141.96516602 272.76515625 141.63516602 273.78515625 141.29516602 C284.19777245 146.35848989 289.22872932 156.54129295 293.9296875 166.50219727 C295.79560007 170.42303692 298.03103423 173.96817995 300.55859375 177.49829102 C303.10098188 181.22280866 304.0376976 183.74942177 303.78515625 188.29516602 C305.10515625 188.62516602 306.42515625 188.95516602 307.78515625 189.29516602 C308.01589844 190.41536133 308.24664063 191.53555664 308.484375 192.68969727 C308.81272765 194.16259345 309.14221435 195.63523714 309.47265625 197.10766602 C309.62154297 197.8456543 309.77042969 198.58364258 309.92382812 199.34399414 C310.93987647 203.93926951 310.93987647 203.93926951 314.30078125 207.10375977 C315.120625 207.49692383 315.94046875 207.89008789 316.78515625 208.29516602 C317.85020514 209.97342488 318.90802274 211.66202003 319.8203125 213.42797852 C320.88020446 215.54948487 320.88020446 215.54948487 322.78515625 218.42016602 C325.2214701 222.65764575 326.37391798 227.25931431 327.70703125 231.93579102 C328.71636261 235.08080903 329.99256426 237.78949458 331.47265625 240.73266602 C334.45229572 247.41672213 334.30059176 254.17509905 334.0690918 261.37890625 C334.04847333 266.76895624 334.51594676 269.55092657 338.296875 273.52954102 C338.93077148 274.1634375 339.56466797 274.79733398 340.21777344 275.45043945 C342.6340731 278.29429618 342.48665504 280.67461122 342.22265625 284.29516602 C342.15949219 285.42954102 342.09632813 286.56391602 342.03125 287.73266602 C341.95003906 288.57829102 341.86882813 289.42391602 341.78515625 290.29516602 C341.12515625 290.29516602 340.46515625 290.29516602 339.78515625 290.29516602 C340.12289062 291.23875977 340.460625 292.18235352 340.80859375 293.15454102 C343.2952976 300.26206716 345.34232559 306.97721894 346.1328125 314.51391602 C346.68471025 317.50997141 346.68471025 317.50997141 348.76953125 320.57641602 C351.25328526 324.70461353 351.62996134 328.55336816 351.97265625 333.29516602 C352.04959717 334.15529297 352.12653809 335.01541992 352.20581055 335.90161133 C352.60339459 340.65216535 352.83695742 345.38896864 352.94921875 350.15454102 C353.20746518 360.8025788 353.941075 369.97277029 357.62890625 380.01782227 C362.49754189 393.81777261 359.630975 409.82387667 357.41015625 423.92016602 C357.07304668 426.13865875 356.739456 428.35766369 356.40588379 430.57669067 C356.18595859 432.03220777 355.96357275 433.48735535 355.73864746 434.94210815 C355.20340037 438.41740801 354.69884322 441.89124896 354.27148438 445.3815918 C353.39979996 452.48226187 352.27463028 459.12626428 350.03515625 465.92016602 C349.49718269 467.62932524 348.96077561 469.33897816 348.42578125 471.04907227 C348.15314453 471.91161621 347.88050781 472.77416016 347.59960938 473.6628418 C346.24598158 478.0377863 345.02071612 482.44821333 343.78515625 486.85766602 C342.082575 492.927371 340.26646404 498.93424357 338.28051758 504.91723633 C335.93067649 512.01575899 334.29600645 518.37370799 333.98046875 525.90454102 C333.7071594 529.24984745 332.68436157 531.55186944 330.78515625 534.29516602 C330.09164062 534.73731445 329.398125 535.17946289 328.68359375 535.63500977 C326.53515189 537.14028259 326.53515189 537.14028259 326.5 539.67016602 C326.57347656 540.53641602 326.64695312 541.40266602 326.72265625 542.29516602 C326.9375 544.92016602 326.9375 544.92016602 326.78515625 547.29516602 C326.10247681 547.92346313 326.10247681 547.92346313 325.40600586 548.56445312 C323.1807023 550.94059063 322.63581834 553.25293183 321.69921875 556.36157227 C321.32539062 557.57006836 320.9515625 558.77856445 320.56640625 560.02368164 C320.17995208 561.30136308 319.79454072 562.57936039 319.41015625 563.85766602 C312.65589923 586.22823107 312.65589923 586.22823107 306.66015625 590.54516602 C301.95111228 595.04946895 301.88587683 601.0577494 300.78515625 607.29516602 C298.72663524 616.92701123 298.72663524 616.92701123 294.84765625 620.35766602 C290.36953371 623.19076395 286.84645915 623.40678522 281.59765625 623.67016602 C275.91798473 624.07221018 271.01423839 625.051063 265.78515625 627.29516602 C265.14707031 627.53364258 264.50898437 627.77211914 263.8515625 628.01782227 C261.39164275 629.53841538 259.93408046 631.50413969 258.15087891 633.74829102 C255.93142467 636.26213835 253.25731542 637.95428953 250.47265625 639.79516602 C249.31967966 640.57157082 248.16733441 641.34891399 247.015625 642.12719727 C245.41654297 643.2003418 245.41654297 643.2003418 243.78515625 644.29516602 C239.79975902 647.06015452 236.19915737 649.57176978 233.28515625 653.48266602 C230.59731615 656.50648612 228.62145912 657.11744873 224.89892578 658.43066406 C221.5275423 659.8095124 218.83638182 661.88894178 215.97265625 664.10766602 C214.67735321 665.08458645 213.3817654 666.06112939 212.0859375 667.03735352 C211.39967285 667.55910156 210.7134082 668.08084961 210.00634766 668.6184082 C205.92353576 671.70048691 201.78632367 674.70903404 197.66015625 677.73266602 C192.96580655 681.17606567 188.32377413 684.64761623 183.78515625 688.29516602 C182.33109375 689.25422852 182.33109375 689.25422852 180.84765625 690.23266602 C177.71406622 692.2349434 177.71406622 692.2349434 174.97265625 694.85766602 C172.47097557 697.04829116 170.30058707 697.82538005 167.09765625 698.67016602 C164.76207862 699.2725616 164.76207862 699.2725616 162.78515625 700.29516602 C162.04265625 702.02766602 162.04265625 702.02766602 161.28515625 703.79516602 C159.78515625 707.29516602 159.78515625 707.29516602 157.95117188 708.1328125 C157.20544922 708.3294751 156.45972656 708.5261377 155.69140625 708.72875977 C150.91304921 710.16397208 147.03969494 712.29794767 142.78515625 714.85766602 C132.49452698 720.8140021 121.60100424 725.02826605 110.51171875 729.2512207 C108.23873495 730.12149996 105.97787005 731.0129725 103.72265625 731.92797852 C91.83380835 736.70066505 79.86876094 738.90297468 67.23706055 740.76220703 C61.78806788 741.60607176 57.71630984 742.7701356 52.78515625 745.29516602 C49.0234375 745.73657227 49.0234375 745.73657227 45.09765625 745.85766602 C39.58471105 745.91272858 39.58471105 745.91272858 34.78515625 748.29516602 C11.33575655 753.77684387 -17.54613606 755.06371448 -41.21484375 750.29516602 C-45.75801128 749.34054207 -45.75801128 749.34054207 -50.21484375 750.29516602 C-63.20635112 751.40419713 -75.0197401 748.93406281 -87.60449219 745.90600586 C-91.04315447 745.10133573 -94.49335917 744.44372631 -97.96484375 743.79516602 C-121.23159903 739.13672377 -148.30796165 733.26160806 -167.21484375 718.29516602 C-158.24602209 715.3055588 -147.839624 720.00645906 -139.46484375 723.23266602 C-131.86781548 726.15679541 -124.72855486 728.21189559 -116.66381836 729.27880859 C-112.3818045 729.86386083 -108.56021731 730.77244176 -104.49365234 732.2265625 C-94.53016589 735.74112235 -84.6426348 735.82810479 -74.18041992 735.98095703 C-65.96592481 736.11100229 -57.98089483 736.69955519 -49.83984375 737.85766602 C-18.80279254 742.01386337 36.35421754 746.58245849 63.78515625 728.29516602 C60.95182828 727.50029573 58.35217618 727.10710328 55.41015625 727.04516602 C54.31574219 727.00649414 54.31574219 727.00649414 53.19921875 726.96704102 C50.63418942 727.17302829 50.63418942 727.17302829 48.06616211 728.74780273 C44.53989804 730.41083285 41.73668238 730.93674842 37.875 731.38110352 C36.89719826 731.49692276 36.89719826 731.49692276 35.89964294 731.61508179 C33.86256531 731.85280977 31.82412369 732.07431432 29.78515625 732.29516602 C27.94268311 732.51027832 27.94268311 732.51027832 26.06298828 732.72973633 C6.98735362 734.87295327 -12.02458002 735.62900175 -31.21484375 735.73266602 C-32.28942841 735.74460999 -33.36401306 735.75655396 -34.47116089 735.76885986 C-37.53198046 735.79834691 -40.59142031 735.79959616 -43.65234375 735.79125977 C-45.0374691 735.80791435 -45.0374691 735.80791435 -46.45057678 735.8249054 C-48.77734607 735.79955608 -50.9332322 735.75220047 -53.21484375 735.29516602 C-55.09082031 733.29785156 -55.09082031 733.29785156 -56.21484375 731.29516602 C-58.91124164 730.88536105 -61.26513557 730.68987191 -63.96484375 730.67016602 C-69.43570102 730.56809778 -73.91709809 729.84678114 -79.21484375 728.29516602 C-82.19584563 728.09272915 -82.19584563 728.09272915 -85.02734375 728.23266602 C-90.02288525 728.39114526 -90.02288525 728.39114526 -92.21484375 727.29516602 C-94.0690169 727.27491763 -95.92385951 727.3032214 -97.77734375 727.35766602 C-104.63133659 727.40685735 -110.38946755 726.65553233 -116.58984375 723.67016602 C-120.11412299 722.33337044 -121.37580916 722.24523757 -124.96484375 722.48266602 C-131.33147907 722.68216549 -136.56515133 720.7480938 -142.50488281 718.72094727 C-151.2533408 715.80364787 -160.16734533 714.19772402 -169.24804688 712.68066406 C-171.21484375 712.29516602 -171.21484375 712.29516602 -174.21484375 711.29516602 C-174.64796875 710.55266602 -175.08109375 709.81016602 -175.52734375 709.04516602 C-177.65994288 705.56981929 -179.86387493 703.61506751 -183.21484375 701.29516602 C-184.32859375 701.15079102 -185.44234375 701.00641602 -186.58984375 700.85766602 C-191.87496955 700.03756029 -196.24650873 696.86823047 -199.51171875 692.59985352 C-201.25553671 690.97365279 -201.25553671 690.97365279 -204.21875 691.43579102 C-210.0080226 691.23206295 -214.11630207 688.75940978 -219.15234375 686.04516602 C-220.16272705 685.50811035 -221.17311035 684.97105469 -222.21411133 684.41772461 C-228.56368327 680.95871587 -234.60161418 677.23820406 -240.40234375 672.92016602 C-241.04228271 672.44546875 -241.68222168 671.97077148 -242.34155273 671.48168945 C-246.19109323 668.47844973 -248.54308836 665.42231103 -251.21484375 661.29516602 C-253.18417365 659.10464452 -255.30232467 657.10559055 -257.46484375 655.10766602 C-257.99980469 654.5875293 -258.53476562 654.06739258 -259.0859375 653.53149414 C-264.53560555 648.46369119 -270.24900429 646.36961213 -277.58984375 645.42016602 C-280.1640625 644.94750977 -280.1640625 644.94750977 -282.21484375 644.29516602 C-283.40234375 641.98266602 -283.40234375 641.98266602 -284.21484375 639.29516602 C-288.81127387 634.47025837 -293.74500398 633.45654524 -300.21484375 633.29516602 C-300.30121094 632.37993164 -300.38757813 631.46469727 -300.4765625 630.52172852 C-300.61707031 629.33321289 -300.75757813 628.14469727 -300.90234375 626.92016602 C-301.02996094 625.73680664 -301.15757812 624.55344727 -301.2890625 623.33422852 C-301.89341428 620.0801479 -301.89341428 620.0801479 -304.796875 618.88110352 C-305.59480469 618.68774414 -306.39273438 618.49438477 -307.21484375 618.29516602 C-306.71984375 622.75016602 -306.71984375 622.75016602 -306.21484375 627.29516602 C-308.36678745 624.06725047 -308.41570818 623.01115792 -308.21484375 619.29516602 C-308.87484375 619.29516602 -309.53484375 619.29516602 -310.21484375 619.29516602 C-309.55484375 622.59516602 -308.89484375 625.89516602 -308.21484375 629.29516602 C-312.11866197 625.39134779 -311.77728558 623.63337566 -312.21484375 618.29516602 C-314.52484375 617.96516602 -316.83484375 617.63516602 -319.21484375 617.29516602 C-319.54484375 614.65516602 -319.87484375 612.01516602 -320.21484375 609.29516602 C-320.94445312 609.29129883 -321.6740625 609.28743164 -322.42578125 609.28344727 C-326.7592205 607.74792888 -327.7948051 604.42069896 -329.83984375 600.48266602 C-333.7546587 593.37483244 -338.03565401 587.75093369 -343.66796875 581.94360352 C-348.8358936 576.56959577 -353.21585253 570.57929507 -357.21484375 564.29516602 C-357.75109375 563.49079102 -358.28734375 562.68641602 -358.83984375 561.85766602 C-360.21484375 559.29516602 -360.21484375 559.29516602 -361.15234375 555.73266602 C-361.92395519 552.27767915 -361.92395519 552.27767915 -364.17578125 550.35766602 C-366.36727776 548.14097989 -366.99020532 546.79677873 -367.90234375 543.85766602 C-369.4690003 539.20684638 -371.30281628 534.76525521 -373.30078125 530.28955078 C-384.0996303 505.98987557 -394.15420357 477.98183907 -394.58984375 451.17016602 C-394.62722656 450.28973633 -394.66460937 449.40930664 -394.703125 448.50219727 C-394.79280824 441.89553223 -394.79280824 441.89553223 -391.6953125 438.67797852 C-390.87675781 437.89165039 -390.05820312 437.10532227 -389.21484375 436.29516602 C-388.89742194 433.34465473 -388.85717686 431.17769671 -389.15234375 428.29516602 C-389.18908203 427.59649414 -389.22582031 426.89782227 -389.26367188 426.17797852 C-389.65553483 421.29121693 -391.09410155 418.94363289 -394.21484375 415.29516602 C-393.88484375 414.30516602 -393.55484375 413.31516602 -393.21484375 412.29516602 C-392.92609375 412.93454102 -392.63734375 413.57391602 -392.33984375 414.23266602 C-391.38660924 416.44722681 -391.38660924 416.44722681 -389.21484375 417.29516602 C-389.07888512 415.88119629 -388.9824053 414.46339917 -388.90234375 413.04516602 C-388.84433594 412.25625977 -388.78632813 411.46735352 -388.7265625 410.65454102 C-388.98643922 408.02708385 -388.98643922 408.02708385 -391.71704102 406.57568359 C-394.21484375 404.29516602 -394.21484375 404.29516602 -394.76660156 401.13476562 C-394.73405273 399.91797119 -394.70150391 398.70117676 -394.66796875 397.44750977 C-394.65852234 396.79440323 -394.64907593 396.14129669 -394.63934326 395.46839905 C-394.60484695 393.38853547 -394.53610653 391.31156503 -394.46484375 389.23266602 C-394.4148181 387.15058904 -394.3718541 385.06853877 -394.33319092 382.98622131 C-394.29478495 381.09924404 -394.23817524 379.21266351 -394.18066406 377.32617188 C-394.06102851 374.24742782 -394.06102851 374.24742782 -395.21484375 371.29516602 C-394.55484375 371.29516602 -393.89484375 371.29516602 -393.21484375 371.29516602 C-391.24982093 376.29125642 -390.83834212 380.75555377 -390.65234375 386.04516602 C-390.66406651 391.33170687 -390.66406651 391.33170687 -389.21484375 396.29516602 C-388.22484375 396.29516602 -387.23484375 396.29516602 -386.21484375 396.29516602 C-386.1897876 395.34673828 -386.16473145 394.39831055 -386.13891602 393.42114258 C-386.04365535 389.8949857 -385.94442934 386.36898642 -385.8425293 382.84301758 C-385.79927668 381.31832216 -385.7575949 379.79358132 -385.7175293 378.26879883 C-385.65959172 376.0743238 -385.5959658 373.88007534 -385.53125 371.68579102 C-385.51453751 371.00647522 -385.49782501 370.32715942 -385.48060608 369.6272583 C-385.37926899 366.37372633 -385.11355245 363.42309356 -384.21484375 360.29516602 C-383.99502145 358.04809361 -383.81000388 355.79745364 -383.65234375 353.54516602 C-383.56855469 352.37469727 -383.48476563 351.20422852 -383.3984375 349.99829102 C-383.33785156 349.10625977 -383.27726562 348.21422852 -383.21484375 347.29516602 C-385.52484375 347.62516602 -387.83484375 347.95516602 -390.21484375 348.29516602 C-389.55484375 346.31516602 -388.89484375 344.33516602 -388.21484375 342.29516602 C-389.53484375 342.62516602 -390.85484375 342.95516602 -392.21484375 343.29516602 C-391.71984375 342.38766602 -391.22484375 341.48016602 -390.71484375 340.54516602 C-388.93547163 337.28643564 -388.93547163 337.28643564 -389.21484375 333.29516602 C-390.18421875 332.90329102 -391.15359375 332.51141602 -392.15234375 332.10766602 C-395.21484375 330.29516602 -395.21484375 330.29516602 -395.89355469 328.03320312 C-398.88068786 302.57674527 -394.16869717 277.64883606 -387.21484375 253.29516602 C-386.27382813 253.46918945 -385.3328125 253.64321289 -384.36328125 253.82250977 C-381.4636581 254.25781299 -379.92802725 254.23434492 -377.21484375 253.29516602 C-375.21484375 256.29516602 -375.21484375 256.29516602 -375.52734375 258.35766602 C-376.21484375 260.29516602 -376.21484375 260.29516602 -377.21484375 262.29516602 C-377.85643041 267.82197679 -378.14982474 272.73751644 -374.83984375 277.42016602 C-372.54390791 280.28020855 -372.54390791 280.28020855 -370.21484375 281.29516602 C-370.12847656 280.36446289 -370.04210937 279.43375977 -369.953125 278.47485352 C-369.19000999 273.21080975 -367.27936443 268.37417717 -365.40234375 263.42016602 C-365.00563477 262.37296387 -364.60892578 261.32576172 -364.20019531 260.24682617 C-356.44943774 240.23843317 -346.56715932 221.47691538 -335.21484375 203.29516602 C-334.82844727 202.67335449 -334.44205078 202.05154297 -334.04394531 201.41088867 C-325.48802384 187.76559983 -314.4621525 171.9022102 -302.21484375 161.29516602 C-301.55484375 161.29516602 -300.89484375 161.29516602 -300.21484375 161.29516602 C-299.95832031 160.72668945 -299.70179688 160.15821289 -299.4375 159.57250977 C-297.64509927 156.23394866 -295.19765086 153.50954042 -292.7734375 150.61157227 C-291.09647077 148.11923826 -290.59525769 146.24988798 -290.21484375 143.29516602 C-295.02608371 147.33039953 -299.34727094 151.33983835 -303.21484375 156.29516602 C-302.74433594 155.88524414 -302.27382813 155.47532227 -301.7890625 155.05297852 C-301.16644531 154.51415039 -300.54382813 153.97532227 -299.90234375 153.42016602 C-299.28746094 152.88649414 -298.67257812 152.35282227 -298.0390625 151.80297852 C-296.21484375 150.29516602 -296.21484375 150.29516602 -293.21484375 148.29516602 C-297.03027071 156.79652996 -306.15183079 162.8377512 -313.09765625 168.74829102 C-314.08507812 169.60938477 -315.0725 170.47047852 -316.08984375 171.35766602 C-317.01539063 172.15301758 -317.9409375 172.94836914 -318.89453125 173.76782227 C-321.40377751 176.13186009 -321.40377751 176.13186009 -322.11328125 179.29516602 C-323.62407384 183.40966499 -326.41495117 184.9734775 -329.96484375 187.23266602 C-335.2457577 190.77433266 -339.39687991 194.12968553 -343.21484375 199.29516602 C-342.55484375 199.29516602 -341.89484375 199.29516602 -341.21484375 199.29516602 C-341.21484375 199.95516602 -341.21484375 200.61516602 -341.21484375 201.29516602 C-342.78256798 202.45049084 -344.39687098 203.54272786 -346.02734375 204.60766602 C-352.98979407 209.49946553 -357.97841876 215.65088209 -363.21484375 222.29516602 C-364.20484375 221.96516602 -365.19484375 221.63516602 -366.21484375 221.29516602 C-365.22484375 220.30516602 -364.23484375 219.31516602 -363.21484375 218.29516602 C-364.01921875 217.51141602 -364.82359375 216.72766602 -365.65234375 215.92016602 C-368.21484375 213.29516602 -368.21484375 213.29516602 -369.21484375 211.29516602 C-367.42447917 210.48136393 -365.63411458 209.66756185 -363.84375 208.85375977 C-361.73691802 206.83787018 -361.85611418 205.22387383 -361.5847168 202.41503906 C-360.81659545 198.01266435 -358.69457076 194.01787113 -356.83984375 189.98266602 C-356.44023437 189.07709961 -356.040625 188.1715332 -355.62890625 187.23852539 C-352.59606425 180.54931301 -352.59606425 180.54931301 -349.21484375 178.29516602 C-348.55484375 178.29516602 -347.89484375 178.29516602 -347.21484375 178.29516602 C-345.66573497 177.25266559 -344.14977491 176.16062334 -342.65234375 175.04516602 C-338.58816637 172.10763287 -334.75727353 170.05093633 -330.02734375 168.41235352 C-327.4603951 166.83013948 -327.14209532 165.11794954 -326.21484375 162.29516602 C-323.53050534 155.82362148 -320.88567676 151.72792061 -315.3828125 147.41235352 C-312.55628241 144.65203044 -310.77797903 141.55338241 -308.77734375 138.17016602 C-305.6482979 132.94587925 -303.00949698 130.02231343 -297.40625 127.55688477 C-293.73424013 125.44269726 -291.6333665 122.08416754 -289.12890625 118.73657227 C-286.09458102 114.86625947 -282.60041568 111.39552207 -278.09765625 109.31860352 C-275.9022827 108.36371415 -275.9022827 108.36371415 -274.83984375 105.42016602 C-272.87090147 101.63373855 -270.84672773 100.44464837 -267.21484375 98.29516602 C-266.57546875 97.73829102 -265.93609375 97.18141602 -265.27734375 96.60766602 C-263.21484375 95.29516602 -263.21484375 95.29516602 -259.90234375 95.10766602 C-255.81696984 94.20749888 -255.47344814 93.77850842 -253.02734375 90.67016602 C-249.37115455 86.04616202 -245.15035469 83.69386648 -240.01953125 80.90454102 C-237.63614565 79.53691586 -235.78272721 78.20719066 -233.77734375 76.35766602 C-230.78436901 73.94868634 -229.89072238 74.20091272 -226.21484375 74.29516602 C-222.92717465 72.1282932 -221.47204272 71.06676293 -220.21484375 67.29516602 C-217.9333286 66.66116376 -215.69158675 66.40942918 -213.34375 66.11547852 C-212.28994141 65.70942383 -212.28994141 65.70942383 -211.21484375 65.29516602 C-210.52500107 63.63795773 -209.85888702 61.97070488 -209.21484375 60.29516602 C-207.32421875 59.14282227 -207.32421875 59.14282227 -204.96484375 58.35766602 C-200.45398476 56.7461732 -196.05046003 55.00070453 -191.65234375 53.10766602 C-190.45480469 52.59848633 -189.25726563 52.08930664 -188.0234375 51.56469727 C-185.36330401 50.5613219 -185.36330401 50.5613219 -184.21484375 49.29516602 C-184.87484375 48.63516602 -185.53484375 47.97516602 -186.21484375 47.29516602 C-185.65498779 47.16464844 -185.09513184 47.03413086 -184.51831055 46.8996582 C-181.97558126 46.29739815 -179.43922047 45.67160055 -176.90234375 45.04516602 C-176.02126953 44.84020508 -175.14019531 44.63524414 -174.23242188 44.42407227 C-173.38486328 44.21137695 -172.53730469 43.99868164 -171.6640625 43.77954102 C-170.88377686 43.59101563 -170.10349121 43.40249023 -169.29956055 43.20825195 C-167.04373897 42.42697342 -167.04373897 42.42697342 -165.67504883 40.20629883 C-164.95224731 39.26028809 -164.95224731 39.26028809 -164.21484375 38.29516602 C-162.23975215 38.26278746 -160.26118446 38.24075463 -158.2890625 38.35375977 C-155.13695144 38.26471708 -152.8708464 36.88876761 -150.21484375 35.29516602 C-157.43947059 35.44625137 -162.59173495 36.64825108 -168.91015625 40.15063477 C-172.06246404 41.71610287 -174.7268255 42.06768656 -178.21484375 42.29516602 C-175.45097183 40.14338446 -172.64951306 38.3114618 -169.58984375 36.60766602 C-168.81382812 36.17067383 -168.0378125 35.73368164 -167.23828125 35.28344727 C-165.21484375 34.29516602 -165.21484375 34.29516602 -163.21484375 34.29516602 C-163.21484375 33.30516602 -163.21484375 32.31516602 -163.21484375 31.29516602 C-158.59484375 29.64516602 -153.97484375 27.99516602 -149.21484375 26.29516602 C-158.717737 28.99782373 -168.15003855 31.86997272 -177.52734375 34.98266602 C-178.42799561 35.27987549 -179.32864746 35.57708496 -180.2565918 35.88330078 C-181.52950073 36.30953735 -181.52950073 36.30953735 -182.828125 36.74438477 C-183.57876221 36.99534912 -184.32939941 37.24631348 -185.1027832 37.50488281 C-187.22783174 38.30002581 -189.20578881 39.24388659 -191.21484375 40.29516602 C-188.57484375 40.29516602 -185.93484375 40.29516602 -183.21484375 40.29516602 C-186.57777334 42.53711907 -189.88554103 43.4934527 -193.71484375 44.60766602 C-200.49526977 46.6422557 -206.86660991 49.13449874 -213.21484375 52.29516602 C-213.21484375 51.63516602 -213.21484375 50.97516602 -213.21484375 50.29516602 C-203.74841997 42.30402906 -192.34138727 36.99523433 -181.37353516 31.42553711 C-179.64863973 30.52231772 -177.96602856 29.53851124 -176.30078125 28.52954102 C-173.87718019 27.09535013 -171.49979452 26.56834364 -168.76953125 25.95532227 C-165.44131004 25.09527733 -162.21396479 23.9722684 -158.96484375 22.85766602 C-148.46127782 19.31857547 -138.50906671 16.93052259 -127.4440918 16.20458984 C-122.45563041 15.78592029 -119.98845605 14.80256228 -116.21484375 11.29516602 C-106.93341526 5.66330451 -93.22317367 7.00588349 -82.76171875 7.06469727 C-81.3259485 7.06589436 -79.89017746 7.06634111 -78.45440674 7.06608582 C-75.47280845 7.06763422 -72.49133303 7.07579808 -69.50976562 7.08935547 C-65.71540442 7.10640488 -61.92117651 7.11016693 -58.12678146 7.10941029 C-55.17200482 7.10968387 -52.21725647 7.11519412 -49.26248932 7.12241173 C-47.8640489 7.1255599 -46.46560533 7.12755662 -45.06716156 7.12830544 C-38.886857 7.13524709 -32.80242299 7.15353789 -26.66503906 7.92675781 C-22.65751262 8.38898337 -19.86129547 7.95328021 -16.08984375 6.35766602 C-15.15914063 5.97739258 -14.2284375 5.59711914 -13.26953125 5.20532227 C-12.25246094 4.75479492 -12.25246094 4.75479492 -11.21484375 4.29516602 C-12.30817017 4.34060547 -12.30817017 4.34060547 -13.42358398 4.38696289 C-27.35919842 4.9576898 -41.26647927 5.47222565 -55.21484375 5.29516602 C-54.21484375 3.29516602 -54.21484375 3.29516602 -51.21484375 2.29516602 C-49.35302545 2.15698975 -47.48718243 2.07024625 -45.62109375 2.01391602 C-44.50734375 1.9765332 -43.39359375 1.93915039 -42.24609375 1.90063477 C-41.08078125 1.86583008 -39.91546875 1.83102539 -38.71484375 1.79516602 C-29.29070634 1.51666739 -29.29070634 1.51666739 -19.89453125 0.78344727 C-13.27071625 0.13842706 -6.64949083 0.03695838 0 0 Z " fill="#FE5A4B" transform="translate(510.21484375,98.704833984375)"/>
<path d="M0 0 C147.56684492 0 147.56684492 0 189 39 C189.99773437 39.88365234 189.99773437 39.88365234 191.015625 40.78515625 C217.36243331 65.15059889 225.66242256 103.52877707 228.78309631 137.70713806 C228.92712087 139.2296038 229.08312667 140.75098595 229.25137329 142.27096558 C230.09834108 150.38527304 230.16379788 158.47266583 230.16796875 166.62109375 C230.1711967 168.13013233 230.1745618 169.63917063 230.17805481 171.14820862 C230.18401346 174.3075533 230.18589862 177.4668708 230.18530273 180.6262207 C230.18522227 183.80336296 230.19204075 186.98035858 230.20581055 190.1574707 C230.37988526 230.94093197 229.39508685 271.65109702 211 309 C210.53078125 309.96550781 210.0615625 310.93101562 209.578125 311.92578125 C194.41652346 341.35462018 168.59416174 361.84710372 137.6875 372.6875 C93.03417464 386.9166519 46.75638639 382 0 382 C0 255.94 0 129.88 0 0 Z " fill="#FEFEFE" transform="translate(526,297)"/>
<path d="M0 0 C2.10201896 -0.00216678 4.20349483 -0.02030814 6.30541992 -0.03930664 C35.05547289 -0.16084945 62.06174358 8.13266908 82.8894043 28.44702148 C108.67604022 54.79750514 109.5690918 86.52887627 109.5690918 122.18530273 C83.4990918 122.18530273 57.4290918 122.18530273 30.5690918 122.18530273 C30.2390918 117.56530273 29.9090918 112.94530273 29.5690918 108.18530273 C27.12018409 100.66968943 24.86478453 94.76224523 17.6315918 90.93530273 C10.68025356 87.5632818 2.28244436 86.88204049 -5.1574707 88.93920898 C-13.55770896 92.17495031 -19.7967682 96.34076454 -24.4309082 104.18530273 C-27.85976171 112.46586732 -27.90497199 123.38799921 -24.7434082 131.81030273 C-16.84891612 148.14373462 3.49424796 156.28286781 19.00048828 163.83789062 C35.42030073 171.84704804 50.61397204 181.37204977 64.5690918 193.18530273 C65.55522461 194.01803711 66.54135742 194.85077148 67.55737305 195.70874023 C73.97111322 201.33296052 79.41404259 207.39716542 84.5690918 214.18530273 C85.16206055 214.95100586 85.7550293 215.71670898 86.3659668 216.50561523 C104.27013035 240.73372647 112.43291726 270.30636252 108.8815918 300.18530273 C104.04515336 329.17080707 88.84672967 353.20377994 65.18237305 370.66577148 C45.56036157 384.64302095 21.49456407 393.24408602 -2.6730957 393.38842773 C-3.44033966 393.39412781 -4.20758362 393.39982788 -4.99807739 393.40570068 C-6.61662446 393.41508998 -8.23519011 393.4216603 -9.85375977 393.42553711 C-12.26525756 393.43514084 -14.67586332 393.46617919 -17.0871582 393.49780273 C-49.85560994 393.72151821 -81.98478236 382.95249228 -105.7199707 359.89233398 C-107.06188477 358.55235352 -107.06188477 358.55235352 -108.4309082 357.18530273 C-109.24301758 356.38479492 -110.05512695 355.58428711 -110.8918457 354.75952148 C-117.09133559 348.29554824 -121.34307301 341.07347702 -125.4309082 333.18530273 C-126.14053711 331.82791992 -126.14053711 331.82791992 -126.86450195 330.44311523 C-136.96978826 309.72885233 -138.4309082 288.04502771 -138.4309082 265.18530273 C-111.7009082 265.18530273 -84.9709082 265.18530273 -57.4309082 265.18530273 C-56.9359082 272.11530273 -56.9359082 272.11530273 -56.4309082 279.18530273 C-54.19695639 290.71020284 -49.38474414 298.76847525 -39.8840332 305.64233398 C-29.32044117 312.28663152 -17.244253 312.78484007 -5.1809082 310.59545898 C3.01126286 308.07031535 9.91753252 302.69600127 14.26831055 295.29467773 C18.63455327 285.93665608 20.49896248 275.7173123 17.88549805 265.51733398 C16.92986083 263.27693968 15.83753229 261.26347096 14.5690918 259.18530273 C13.98514648 258.10055664 13.98514648 258.10055664 13.3894043 256.99389648 C0.86748726 235.69181868 -29.57917059 225.30708376 -50.73950195 215.10717773 C-81.49887513 200.18728653 -110.6381162 179.3242827 -122.6809082 145.93530273 C-131.62073808 119.71898936 -130.7169614 92.3160658 -118.50366211 67.28491211 C-108.84946064 48.51694793 -94.07974601 33.53240302 -76.4309082 22.18530273 C-74.81829102 21.13922852 -74.81829102 21.13922852 -73.1730957 20.07202148 C-51.36220002 6.79470319 -25.40292377 -0.00291954 0 0 Z " fill="#FEFEFE" transform="translate(401.430908203125,290.814697265625)"/>
<path d="M0 0 C18.38139547 0 30.44986385 3.17336299 43.6484375 15.5546875 C47.33594273 19.38920291 50.2579362 23.45020525 53 28 C53.51175781 28.845625 54.02351562 29.69125 54.55078125 30.5625 C68.39684324 55.75016833 68.51978204 85.73746516 68.39111328 113.68920898 C68.37397529 117.44396024 68.38421613 121.19807565 68.40143681 124.95280552 C68.52303511 156.19878239 66.53908649 190.82572488 44 215 C43.36320313 215.71542969 42.72640625 216.43085937 42.0703125 217.16796875 C33.54577709 226.29161809 22.97673203 231.00581699 11 234 C7.37 234 3.74 234 0 234 C0 156.78 0 79.56 0 0 Z " fill="#FE5A4B" transform="translate(606,368)"/>
<path d="M0 0 C1.89788611 2.84682916 2.43477625 4.25060648 3.0625 7.5 C3.21847656 8.2734375 3.37445312 9.046875 3.53515625 9.84375 C7.06598244 33.8177631 7.25723565 61.32184988 2 85 C1.67008057 86.52343018 1.67008057 86.52343018 1.33349609 88.07763672 C0.60532683 91.37173576 -0.15590444 94.65568402 -0.9375 97.9375 C-1.29835693 99.45923828 -1.29835693 99.45923828 -1.66650391 101.01171875 C-3.67291151 108.89355882 -3.67291151 108.89355882 -6.1796875 112.390625 C-8.20015284 115.28691437 -8.33744651 116.37483745 -8.1875 119.8125 C-8.73290198 130.26125372 -16.05482222 140.64632802 -22 149 C-25.0255625 151.08007422 -26.14475109 151 -30 151 C-29.34 148.36 -28.68 145.72 -28 143 C-31.96 143.99 -35.92 144.98 -40 146 C-39.43579486 143.22399067 -38.84977 140.45584136 -38.25 137.6875 C-38.09273437 136.90181641 -37.93546875 136.11613281 -37.7734375 135.30664062 C-36.48719223 129.49380143 -36.48719223 129.49380143 -33.984375 126.95703125 C-32 126 -32 126 -30 126 C-30.01160156 125.38253906 -30.02320313 124.76507812 -30.03515625 124.12890625 C-30.08972325 119.00740395 -29.86221147 114.06478547 -29.22265625 108.984375 C-28.96034191 106.64655599 -28.92418618 104.35022828 -29 102 C-27.515 101.505 -27.515 101.505 -26 101 C-25.07055972 98.77868238 -25.07055972 98.77868238 -24.5 96.0625 C-23.6066275 92.41417251 -22.64127677 88.86938816 -21.4375 85.3125 C-19.82967984 80.13915118 -19.27955076 74.91173465 -18.82202148 69.5324707 C-18.41378503 65.40204855 -17.61401735 63.17570703 -15 60 C-15.28076792 56.69523952 -15.28076792 56.69523952 -16 53 C-16.78009314 44.81732084 -14.75652578 36.93573253 -13 29 C-12.34 29 -11.68 29 -11 29 C-10.505 37.415 -10.505 37.415 -10 46 C-9.66226563 44.51886719 -9.32453125 43.03773438 -8.9765625 41.51171875 C-8.526364 39.57023773 -8.07582547 37.62883553 -7.625 35.6875 C-7.29242187 34.22280273 -7.29242187 34.22280273 -6.953125 32.72851562 C-6.62441406 31.32182617 -6.62441406 31.32182617 -6.2890625 29.88671875 C-5.99056396 28.59060669 -5.99056396 28.59060669 -5.68603516 27.26831055 C-5 25 -5 25 -3 22 C-3.13112128 19.35302259 -3.13112128 19.35302259 -3.625 16.4375 C-4.31912022 10.0344359 -2.91510109 5.65504589 0 0 Z " fill="#FE5849" transform="translate(888,473)"/>
<path d="M0 0 C-11.23404255 15.61702128 -11.23404255 15.61702128 -16 18 C-16.40992188 18.70382813 -16.81984375 19.40765625 -17.2421875 20.1328125 C-19.48373967 23.78903316 -22.20231364 26.75193935 -25.125 29.875 C-25.7017749 30.49270264 -26.2785498 31.11040527 -26.87280273 31.74682617 C-37.78174121 43.24420732 -37.78174121 43.24420732 -45 45 C-45.66 45.66 -46.32 46.32 -47 47 C-46.93039063 48.06992188 -46.86078125 49.13984375 -46.7890625 50.2421875 C-47.0582151 55.03709121 -49.06449535 56.97174432 -52.375 60.125 C-55.79285371 63.48213042 -58.57183364 66.30253715 -60 71 C-61.48155502 66.55533495 -60.6258742 63.34003515 -59 59 C-54.61127147 51.40929097 -48.64217691 45.57492151 -42.390625 39.5625 C-40.24675623 37.26449687 -39.14180423 35.67820472 -38 32.8125 C-35.98727126 27.85730487 -31.68025734 25.53442276 -27.36328125 22.6640625 C-24.910718 21.21630893 -24.910718 21.21630893 -24 19 C-24.99 19 -25.98 19 -27 19 C-27 18.34 -27 17.68 -27 17 C-25.19921875 15.37109375 -25.19921875 15.37109375 -22.6875 13.4375 C-17.80454351 9.63422719 -13.01686597 5.73271713 -8.25 1.78515625 C-4.98030694 -0.80902731 -3.93781046 -1.18134314 0 0 Z " fill="#FE5546" transform="translate(222,206)"/>
<path d="M0 0 C1.43662356 -0.01152806 2.87320402 -0.03199342 4.30957031 -0.06152344 C14.13785735 -0.26226093 22.4681749 0.89514555 31.78515625 4.29516602 C33.63514189 4.85094471 35.48871048 5.39513513 37.34765625 5.92016602 C39.58604241 6.56186188 41.5590788 7.17317133 43.609375 8.27954102 C46.65853761 9.70284852 49.74338773 10.24962058 53.03515625 10.92016602 C54.2984375 11.18055664 55.56171875 11.44094727 56.86328125 11.70922852 C57.8275 11.90258789 58.79171875 12.09594727 59.78515625 12.29516602 C59.78515625 12.62516602 59.78515625 12.95516602 59.78515625 13.29516602 C53.84515625 13.29516602 47.90515625 13.29516602 41.78515625 13.29516602 C41.78515625 13.62516602 41.78515625 13.95516602 41.78515625 14.29516602 C35.58410813 14.57076815 29.85331147 13.52415948 23.78515625 12.29516602 C23.78515625 11.63516602 23.78515625 10.97516602 23.78515625 10.29516602 C24.44515625 10.29516602 25.10515625 10.29516602 25.78515625 10.29516602 C25.78515625 9.63516602 25.78515625 8.97516602 25.78515625 8.29516602 C18.19515625 7.63516602 10.60515625 6.97516602 2.78515625 6.29516602 C2.78515625 5.96516602 2.78515625 5.63516602 2.78515625 5.29516602 C2.15867187 5.30676758 1.5321875 5.31836914 0.88671875 5.33032227 C0.06945312 5.3393457 -0.7478125 5.34836914 -1.58984375 5.35766602 C-2.40195312 5.36926758 -3.2140625 5.38086914 -4.05078125 5.39282227 C-6.21484375 5.29516602 -6.21484375 5.29516602 -8.21484375 4.29516602 C-10.26855991 4.2787067 -12.32297653 4.33128534 -14.375 4.41625977 C-15.63683105 4.46468018 -16.89866211 4.51310059 -18.19873047 4.56298828 C-18.86580017 4.59079376 -19.53286987 4.61859924 -20.22015381 4.64724731 C-23.63851924 4.78918478 -27.05748234 4.91400812 -30.4765625 5.03735352 C-31.48326996 5.07394829 -31.48326996 5.07394829 -32.51031494 5.11128235 C-40.0812143 5.37653937 -47.64060077 5.39511937 -55.21484375 5.29516602 C-54.21484375 3.29516602 -54.21484375 3.29516602 -51.21484375 2.29516602 C-49.35302545 2.15698975 -47.48718243 2.07024625 -45.62109375 2.01391602 C-43.95046875 1.9578418 -43.95046875 1.9578418 -42.24609375 1.90063477 C-41.08078125 1.86583008 -39.91546875 1.83102539 -38.71484375 1.79516602 C-29.29070634 1.51666739 -29.29070634 1.51666739 -19.89453125 0.78344727 C-13.27071625 0.13842706 -6.64949083 0.03695838 0 0 Z " fill="#FE5445" transform="translate(510.21484375,98.704833984375)"/>
<path d="M0 0 C-0.33 0.66 -0.66 1.32 -1 2 C-0.67 2 -0.34 2 0 2 C0.99 2.33 1.98 2.66 3 3 C1.87207031 3.35191406 0.74414062 3.70382813 -0.41796875 4.06640625 C-9.44662029 6.89398094 -18.45560013 9.77702341 -27.4375 12.75 C-28.33041748 13.04334229 -29.22333496 13.33668457 -30.14331055 13.63891602 C-30.981604 13.91791748 -31.81989746 14.19691895 -32.68359375 14.484375 C-33.42150146 14.72897461 -34.15940918 14.97357422 -34.91967773 15.22558594 C-37.0351141 16.01307146 -39.00125776 16.95423505 -41 18 C-38.36 18 -35.72 18 -33 18 C-36.36292959 20.24195306 -39.67069728 21.19828669 -43.5 22.3125 C-50.28042602 24.34708969 -56.65176616 26.83933273 -63 30 C-63 29.34 -63 28.68 -63 28 C-53.5334786 20.00878063 -42.12617309 14.69943983 -31.15795898 9.13012695 C-29.43690981 8.22881044 -27.75842384 7.24636494 -26.09765625 6.23828125 C-23.62588691 4.77915484 -21.17280697 4.22496783 -18.38671875 3.609375 C-14.40999591 2.59404151 -10.5853386 1.11871869 -6.734375 -0.29296875 C-3.95377248 -1.01195312 -2.64898896 -0.9902173 0 0 Z " fill="#FE584B" transform="translate(360,121)"/>
<path d="M0 0 C7.42276408 -0.49947571 13.77526113 -0.43376137 20 4 C22.49801537 6.61737447 24.82645507 9.34975944 27.1796875 12.09765625 C30.17374751 15.36499229 33.58993302 17.7506033 37.3125 20.125 C37.89926514 20.50293701 38.48603027 20.88087402 39.09057617 21.27026367 C42.39388531 23.29846247 45.212895 24.32397761 49 25 C49.495 25.99 49.495 25.99 50 27 C47.69 26.67 45.38 26.34 43 26 C43.495 27.485 43.495 27.485 44 29 C40.0536089 27.60631954 37.03513465 25.74982558 33.6875 23.25 C32.73101563 22.54230469 31.77453125 21.83460938 30.7890625 21.10546875 C29.06763206 19.80595754 27.35263641 18.49780931 25.6484375 17.17578125 C24.96007812 16.64339844 24.27171875 16.11101562 23.5625 15.5625 C22.96566406 15.08941406 22.36882813 14.61632812 21.75390625 14.12890625 C19.84740561 12.90178223 18.21493004 12.4235141 16 12 C16 10.68 16 9.36 16 8 C14.824375 7.6596875 14.824375 7.6596875 13.625 7.3125 C8.87698375 5.59339067 4.47897448 3.31915279 0 1 C0 0.67 0 0.34 0 0 Z " fill="#FE5243" transform="translate(654,145)"/>
<path d="M0 0 C3.97972524 0.74058797 7.85588573 1.70681823 11.75 2.8125 C12.89984375 3.12832031 14.0496875 3.44414063 15.234375 3.76953125 C18 5 18 5 18.890625 7.13671875 C18.94476562 8.05904297 18.94476562 8.05904297 19 9 C21.475 9.495 21.475 9.495 24 10 C23.34 10.33 22.68 10.66 22 11 C22 11.66 22 12.32 22 13 C25.3 12.67 28.6 12.34 32 12 C28.90219052 14.06520632 28.0459519 14.29477024 24.5 14.3125 C23.33984375 14.33763672 23.33984375 14.33763672 22.15625 14.36328125 C20 14 20 14 18.71875 12.60546875 C16.49442902 10.52775074 14.2523461 10.18110779 11.3359375 9.53613281 C6.99620607 8.54009914 2.75859623 7.1686724 -1.5 5.875 C-2.87671875 5.45927734 -2.87671875 5.45927734 -4.28125 5.03515625 C-6.52135022 4.35845931 -8.76091362 3.68004252 -11 3 C-11 2.34 -11 1.68 -11 1 C-7.37 1.33 -3.74 1.66 0 2 C0 1.34 0 0.68 0 0 Z " fill="#FE4D3D" transform="translate(608,123)"/>
<path d="M0 0 C0 0.33 0 0.66 0 1 C-1.6396875 1.2165625 -1.6396875 1.2165625 -3.3125 1.4375 C-6.93122987 1.88288104 -6.93122987 1.88288104 -10 3 C-11.03125 2.95875 -12.0625 2.9175 -13.125 2.875 C-17.1417944 3.00457401 -19.98009092 3.8364749 -23.69140625 5.24609375 C-29.16783195 7.0345035 -34.74673601 7.19016695 -40.4609375 7.31640625 C-41.25150543 7.33718735 -42.04207336 7.35796844 -42.8565979 7.37937927 C-45.36265017 7.44435582 -47.86880024 7.50351643 -50.375 7.5625 C-52.08204105 7.60573468 -53.78907249 7.64935049 -55.49609375 7.69335938 C-59.66396426 7.7999834 -63.83193239 7.90139441 -68 8 C-63.33009428 5.52616518 -59.26043301 5.41529734 -54 5 C-59.28 4.67 -64.56 4.34 -70 4 C-70 3.67 -70 3.34 -70 3 C-65.48340204 2.97503156 -60.96684209 2.95701463 -56.45019531 2.94506836 C-54.91796162 2.94008104 -53.38573258 2.93328878 -51.85351562 2.92456055 C-37.46778988 2.84474418 -37.46778988 2.84474418 -31.25 3.625 C-27.54840425 4.06626279 -25.27202396 3.77252732 -21.875 2.0625 C-14.73307837 -0.92785855 -7.59104677 -0.34288292 0 0 Z " fill="#FD402F" transform="translate(515,103)"/>
<path d="M0 0 C3.54150893 -0.08761663 7.08273633 -0.14059739 10.625 -0.1875 C11.62402344 -0.21263672 12.62304688 -0.23777344 13.65234375 -0.26367188 C19.36338491 -0.32040407 22.96575833 0.08242812 28 3 C30.440617 3.63497851 32.90121323 4.19741017 35.375 4.6875 C36.62023437 4.93886719 37.86546875 5.19023438 39.1484375 5.44921875 C40.08945312 5.63097656 41.03046875 5.81273438 42 6 C42 6.33 42 6.66 42 7 C36.06 7 30.12 7 24 7 C24 7.33 24 7.66 24 8 C17.79895188 8.27560214 12.06815522 7.22899346 6 6 C6 5.34 6 4.68 6 4 C6.66 4 7.32 4 8 4 C8 3.34 8 2.68 8 2 C5.36 1.67 2.72 1.34 0 1 C0 0.67 0 0.34 0 0 Z " fill="#FCE3E0" transform="translate(528,105)"/>
<path d="M0 0 C-2.70285838 1.80190559 -5.06169076 2.99149401 -8.0625 4.1875 C-8.94035156 4.55230469 -9.81820312 4.91710937 -10.72265625 5.29296875 C-14.46517272 6.10035311 -17.32749182 5.79382162 -21.09448242 5.32202148 C-26.74853233 4.69537735 -32.44236392 4.62306788 -38.125 4.4375 C-39.36765625 4.39431641 -40.6103125 4.35113281 -41.890625 4.30664062 C-44.92699671 4.20153545 -47.96343665 4.09938657 -51 4 C-47.014077 1.34900742 -42.72887744 1.55285219 -38.10546875 1.3671875 C-36.80709831 1.30484421 -36.80709831 1.30484421 -35.48249817 1.24124146 C-32.71781402 1.110748 -29.9527461 0.99291581 -27.1875 0.875 C-25.33785363 0.78854826 -23.48824352 0.70131713 -21.63867188 0.61328125 C-7.20274821 -0.05662443 -7.20274821 -0.05662443 0 0 Z " fill="#FCE7E5" transform="translate(502,102)"/>
<path d="M0 0 C4.17018801 0.97729297 7.89404992 2.66090643 11.68359375 4.62890625 C9.60805727 5.18238265 7.83993411 5.62890625 5.68359375 5.62890625 C7.00359375 6.28890625 8.32359375 6.94890625 9.68359375 7.62890625 C9.68359375 8.28890625 9.68359375 8.94890625 9.68359375 9.62890625 C10.67359375 9.95890625 11.66359375 10.28890625 12.68359375 10.62890625 C12.68359375 10.95890625 12.68359375 11.28890625 12.68359375 11.62890625 C6.23444024 11.1598769 1.47281574 9.42013828 -4.31640625 6.62890625 C-5.66724759 6.03791317 -7.02112404 5.45377372 -8.37890625 4.87890625 C-9.34828125 4.46640625 -10.31765625 4.05390625 -11.31640625 3.62890625 C-8.16459574 -1.09880952 -5.14671108 -0.72650454 0 0 Z " fill="#FD5749" transform="translate(582.31640625,113.37109375)"/>
<path d="M0 0 C0.66 0.33 1.32 0.66 2 1 C1 4 1 4 -1.50390625 5.38671875 C-2.51324219 5.81597656 -3.52257812 6.24523437 -4.5625 6.6875 C-5.57441406 7.12449219 -6.58632813 7.56148437 -7.62890625 8.01171875 C-8.41136719 8.33785156 -9.19382812 8.66398438 -10 9 C-7.36 9 -4.72 9 -2 9 C-5.36292959 11.24195306 -8.67069728 12.19828669 -12.5 13.3125 C-19.28042602 15.34708969 -25.65176616 17.83933273 -32 21 C-32 20.34 -32 19.68 -32 19 C-24.95877423 13.13441875 -16.87197718 8.66564592 -8.8125 4.375 C-7.97485107 3.92511719 -7.13720215 3.47523438 -6.27416992 3.01171875 C-5.48888916 2.60308594 -4.7036084 2.19445312 -3.89453125 1.7734375 C-2.84036011 1.22308838 -2.84036011 1.22308838 -1.76489258 0.66162109 C-1.18247803 0.44328613 -0.60006348 0.22495117 0 0 Z " fill="#FC5345" transform="translate(329,130)"/>
<path d="M0 0 C0 0.33 0 0.66 0 1 C-16.89812671 4.74302592 -34.77648077 4.20806936 -52 4 C-51 2 -51 2 -48 1 C-46.26756618 0.85042841 -44.53050818 0.7518237 -42.79296875 0.68359375 C-41.21491455 0.6206311 -41.21491455 0.6206311 -39.60498047 0.55639648 C-38.47721191 0.51716064 -37.34944336 0.4779248 -36.1875 0.4375 C-34.46104248 0.37381226 -34.46104248 0.37381226 -32.69970703 0.30883789 C-21.7976909 -0.06324713 -10.9067511 -0.09835747 0 0 Z " fill="#FD402F" transform="translate(507,100)"/>
<path d="M0 0 C0 0.66 0 1.32 0 2 C-1.21236328 2.58007812 -1.21236328 2.58007812 -2.44921875 3.171875 C-3.51785156 3.69265625 -4.58648437 4.2134375 -5.6875 4.75 C-6.74324219 5.26046875 -7.79898437 5.7709375 -8.88671875 6.296875 C-12.92932282 8.50838739 -16.10861064 10.48605299 -18.4765625 14.5078125 C-20.35533508 17.58129175 -22.35086099 18.94452222 -25.375 20.875 C-26.77878906 21.79925781 -26.77878906 21.79925781 -28.2109375 22.7421875 C-31.38371139 24.17304631 -32.74354153 24.05390838 -36 23 C-35 20 -35 20 -33.390625 19.18359375 C-32.68421875 18.93738281 -31.9778125 18.69117188 -31.25 18.4375 C-26.83699417 16.62326427 -23.31943661 14.09268011 -19.625 11.125 C-5.71414782 0 -5.71414782 0 0 0 Z " fill="#FD4B3C" transform="translate(281,159)"/>
<path d="M0 0 C0.66 0 1.32 0 2 0 C3.15448176 3.46344527 3.20405092 6.28837726 3.25 9.9375 C3.27578125 11.16339844 3.3015625 12.38929688 3.328125 13.65234375 C3 17 3 17 0 21 C-0.33 17.7 -0.66 14.4 -1 11 C-1.33 11.99 -1.66 12.98 -2 14 C-2.66 14 -3.32 14 -4 14 C-3.38029501 4.19156581 -3.38029501 4.19156581 0 0 Z " fill="#FE5746" transform="translate(886,452)"/>
<path d="M0 0 C0.556875 0.226875 1.11375 0.45375 1.6875 0.6875 C0.77816991 1.96359323 -0.14032853 3.23315553 -1.0625 4.5 C-1.57296875 5.20769531 -2.0834375 5.91539062 -2.609375 6.64453125 C-4.33732358 8.71727691 -6.09776476 10.16125854 -8.3125 11.6875 C-8.3125 11.0275 -8.3125 10.3675 -8.3125 9.6875 C-12.62642226 10.1668247 -14.47819547 11.4332985 -17.3125 14.6875 C-17.9725 14.3575 -18.6325 14.0275 -19.3125 13.6875 C-17.42157094 11.9111727 -15.52511247 10.1414586 -13.625 8.375 C-12.82932617 7.62573242 -12.82932617 7.62573242 -12.01757812 6.86132812 C-4.02398298 -0.54378148 -4.02398298 -0.54378148 0 0 Z " fill="#FE4C3C" transform="translate(220.3125,205.3125)"/>
<path d="M0 0 C-6.46153846 5.07692308 -6.46153846 5.07692308 -10.03125 4.8984375 C-12.02813923 4.652342 -14.01537895 4.33077017 -16 4 C-16.165 4.598125 -16.33 5.19625 -16.5 5.8125 C-18.81276204 9.18527798 -22.19891337 9.8331548 -26 11 C-24.12543285 6.00476615 -20.3491485 4.60890921 -15.8203125 2.26171875 C-10.59890225 -0.07417531 -5.63420716 -0.13741969 0 0 Z " fill="#FCEFEE" transform="translate(362,133)"/>
<path d="M0 0 C3.3 0 6.6 0 10 0 C5.55618306 4.58716587 0.79771501 8.78762713 -4 13 C-4 6.08 -4 6.08 -1.4375 3.3125 C-0.963125 2.879375 -0.48875 2.44625 0 2 C0 1.34 0 0.68 0 0 Z " fill="#FD5446" transform="translate(228,191)"/>
<path d="M0 0 C-0.33 0.66 -0.66 1.32 -1 2 C-0.67 2 -0.34 2 0 2 C0.99 2.33 1.98 2.66 3 3 C0.92085336 3.70005949 -1.16351586 4.38462244 -3.25 5.0625 C-4.41015625 5.44535156 -5.5703125 5.82820313 -6.765625 6.22265625 C-9.80077085 6.95211763 -11.15703213 7.11889082 -14 6 C-12.35 5.67 -10.7 5.34 -9 5 C-9 4.34 -9 3.68 -9 3 C-13.95 4.485 -13.95 4.485 -19 6 C-15.87667693 2.87667693 -14.16287455 2.1083441 -10.0625 0.75 C-9.02222656 0.39421875 -7.98195313 0.0384375 -6.91015625 -0.328125 C-4.05806177 -0.98659513 -2.69443735 -1.01284874 0 0 Z " fill="#FE4E3E" transform="translate(360,121)"/>
<path d="M0 0 C5.94 0 11.88 0 18 0 C18 0.66 18 1.32 18 2 C19.32 2.66 20.64 3.32 22 4 C22 4.66 22 5.32 22 6 C20.35 6 18.7 6 17 6 C17 5.67 17 5.34 17 5 C16.39671875 5.03480469 15.7934375 5.06960937 15.171875 5.10546875 C8.55434556 5.32961088 8.55434556 5.32961088 5.6875 3.625 C5.130625 3.08875 4.57375 2.5525 4 2 C2.68 1.34 1.36 0.68 0 0 Z " fill="#FE6E61" transform="translate(496,99)"/>
<path d="M0 0 C0.35281338 4.1970092 -0.35814568 6.06522073 -3 9.3125 C-3.556875 10.00988281 -4.11375 10.70726562 -4.6875 11.42578125 C-5.120625 11.94527344 -5.55375 12.46476563 -6 13 C-6.33 12.01 -6.66 11.02 -7 10 C-6.34 9.01 -5.68 8.02 -5 7 C-7.31 9.31 -9.62 11.62 -12 14 C-12.66 13.67 -13.32 13.34 -14 13 C-12.56354149 11.39490066 -11.12579294 9.79095576 -9.6875 8.1875 C-8.88699219 7.29417969 -8.08648437 6.40085938 -7.26171875 5.48046875 C-2.26456693 0 -2.26456693 0 0 0 Z " fill="#FCEFEE" transform="translate(220,242)"/>
<path d="M0 0 C3.03272709 -0.22888506 5.97440909 -0.3565875 9 0 C10.8125 1.875 10.8125 1.875 12 4 C14.08334635 5.2516467 14.08334635 5.2516467 16 6 C12.55650571 7.17719456 10.33846495 6.83086208 6.875 5.8125 C5.57175781 5.45091797 5.57175781 5.45091797 4.2421875 5.08203125 C1.56789994 3.79147784 1.00834312 2.73612205 0 0 Z " fill="#FD5041" transform="translate(499,115)"/>
<path d="M0 0 C5.52706913 0.72724594 10.69960141 2.33445973 16 4 C16 4.33 16 4.66 16 5 C11.58338849 5.05804281 7.16687504 5.09361104 2.75 5.125 C1.49574219 5.14175781 0.24148438 5.15851563 -1.05078125 5.17578125 C-2.25605469 5.18222656 -3.46132813 5.18867187 -4.703125 5.1953125 C-6.36843262 5.21102295 -6.36843262 5.21102295 -8.06738281 5.22705078 C-11 5 -11 5 -15 3 C-9.06 3 -3.12 3 3 3 C3 2.34 3 1.68 3 1 C2.01 0.67 1.02 0.34 0 0 Z " fill="#FE412F" transform="translate(533,101)"/>
<path d="M0 0 C-1.98 0.99 -3.96 1.98 -6 3 C-4.68 3.66 -3.36 4.32 -2 5 C-3.11375 5.4125 -4.2275 5.825 -5.375 6.25 C-7.82651723 7.15894044 -10.24492221 8.10388453 -12.65234375 9.125 C-13.96912109 9.681875 -13.96912109 9.681875 -15.3125 10.25 C-16.13363281 10.60578125 -16.95476562 10.9615625 -17.80078125 11.328125 C-20 12 -20 12 -23 11 C-20.87767021 9.82823482 -18.75242209 8.66245215 -16.625 7.5 C-16.02171875 7.16613281 -15.4184375 6.83226562 -14.796875 6.48828125 C-10.2265625 4 -10.2265625 4 -8 4 C-8 3.01 -8 2.02 -8 1 C-3.375 -1.125 -3.375 -1.125 0 0 Z " fill="#FC4434" transform="translate(355,129)"/>
<path d="M0 0 C0.66 0 1.32 0 2 0 C4.07434732 5.11236781 4.24424065 9.46330893 4.125 14.875 C4.11597656 15.65875 4.10695313 16.4425 4.09765625 17.25 C4.07428063 19.16680055 4.03841653 21.08344191 4 23 C3.01 22.67 2.02 22.34 1 22 C1.00523682 21.44014404 1.01047363 20.88028809 1.01586914 20.3034668 C1.03666691 17.76482263 1.04966904 15.22619641 1.0625 12.6875 C1.07087891 11.80642578 1.07925781 10.92535156 1.08789062 10.01757812 C1.09111328 9.17001953 1.09433594 8.32246094 1.09765625 7.44921875 C1.10289307 6.66893311 1.10812988 5.88864746 1.11352539 5.0847168 C1.08137863 2.8038445 1.08137863 2.8038445 0 0 Z " fill="#FD4636" transform="translate(115,470)"/>
<path d="M0 0 C0.99 0.99 1.98 1.98 3 3 C2.59007812 3.53109375 2.18015625 4.0621875 1.7578125 4.609375 C1.21898437 5.31578125 0.68015625 6.0221875 0.125 6.75 C-0.40867188 7.44609375 -0.94234375 8.1421875 -1.4921875 8.859375 C-2.89238914 10.84722603 -3.97855265 12.79843386 -5 15 C-6.07735006 11.76794982 -5.92640423 10.66422565 -5.1875 7.4375 C-5.01605469 6.65246094 -4.84460938 5.86742187 -4.66796875 5.05859375 C-4 3 -4 3 -2 1 C-1.34 0.67 -0.68 0.34 0 0 Z " fill="#FD5747" transform="translate(167,262)"/>
<path d="M0 0 C0.66 0 1.32 0 2 0 C2 5.94 2 11.88 2 18 C1.34 17.01 0.68 16.02 0 15 C-0.66 15.66 -1.32 16.32 -2 17 C-2.21824777 10.9981863 -1.5056904 5.80766296 0 0 Z " fill="#FD4B3B" transform="translate(875,502)"/>
<path d="M0 0 C1.984375 0.12109375 1.984375 0.12109375 4 1 C5.265625 2.84765625 5.265625 2.84765625 6.25 5.0625 C6.58515625 5.79597656 6.9203125 6.52945313 7.265625 7.28515625 C7.50796875 7.85105469 7.7503125 8.41695312 8 9 C6.68 9 5.36 9 4 9 C3.67 7.68 3.34 6.36 3 5 C3 5.99 3 6.98 3 8 C1.0625 7.25 1.0625 7.25 -1 6 C-1.875 4 -1.875 4 -2 2 C-1.34 1.34 -0.68 0.68 0 0 Z " fill="#FD5040" transform="translate(778,230)"/>
<path d="M0 0 C1.6510403 0.39553053 3.2958515 0.81713897 4.9375 1.25 C5.85402344 1.48203125 6.77054688 1.7140625 7.71484375 1.953125 C10 3 10 3 10.81640625 5.109375 C10.87699219 5.73328125 10.93757812 6.3571875 11 7 C4.65625 7.48798077 4.65625 7.48798077 1.5625 5.1875 C0 3 0 3 0 0 Z " fill="#FD5648" transform="translate(616,125)"/>
<path d="M0 0 C1.8125 5.4375 1.8125 5.4375 2 8 C0.0625 10.3125 0.0625 10.3125 -2 12 C-2.99 11.67 -3.98 11.34 -5 11 C-4.01 10.01 -3.02 9.02 -2 8 C-2.804375 7.21625 -3.60875 6.4325 -4.4375 5.625 C-7 3 -7 3 -8 1 C-7.4225 1.20625 -6.845 1.4125 -6.25 1.625 C-3.48032433 2.08661261 -2.35438733 1.42944945 0 0 Z " fill="#FD5244" transform="translate(149,309)"/>
<path d="M0 0 C0.66 0.33 1.32 0.66 2 1 C1 4 1 4 -2.0546875 5.640625 C-3.32326378 6.18847975 -4.59699595 6.72451331 -5.875 7.25 C-6.51308594 7.53101563 -7.15117187 7.81203125 -7.80859375 8.1015625 C-12.61480415 10.12839862 -12.61480415 10.12839862 -16 9 C-13.38029207 7.46935061 -10.75498357 5.95030252 -8.125 4.4375 C-7.37863281 3.99986328 -6.63226563 3.56222656 -5.86328125 3.11132812 C-5.14785156 2.70205078 -4.43242187 2.29277344 -3.6953125 1.87109375 C-3.03547363 1.48880615 -2.37563477 1.10651855 -1.69580078 0.71264648 C-1.13618652 0.47747314 -0.57657227 0.2422998 0 0 Z " fill="#FB402F" transform="translate(329,130)"/>
<path d="M0 0 C8.01701946 -0.41467342 15.21930149 1.14060121 23 3 C23 3.33 23 3.66 23 4 C20.1033852 3.88569952 17.20821684 3.7589576 14.3125 3.625 C13.49587891 3.5940625 12.67925781 3.563125 11.83789062 3.53125 C7.49873367 3.32044076 3.95716543 2.98261241 0 1 C0 0.67 0 0.34 0 0 Z " fill="#FC4333" transform="translate(547,108)"/>
<path d="M0 0 C7.26 0 14.52 0 22 0 C22 0.33 22 0.66 22 1 C14.58856436 2.42625566 7.55137932 3.30071865 0 3 C0 2.01 0 1.02 0 0 Z " fill="#FC4E3E" transform="translate(485,100)"/>
<path d="M0 0 C0.33 0.66 0.66 1.32 1 2 C1.598125 1.649375 2.19625 1.29875 2.8125 0.9375 C5 0 5 0 8 1 C2.06 3.64 -3.88 6.28 -10 9 C-10 8.34 -10 7.68 -10 7 C-7.8125 5.2734375 -7.8125 5.2734375 -5 3.375 C-4.071875 2.74335938 -3.14375 2.11171875 -2.1875 1.4609375 C-1.1046875 0.73777344 -1.1046875 0.73777344 0 0 Z " fill="#FC4B3C" transform="translate(307,142)"/>
<path d="M0 0 C2.64 0.33 5.28 0.66 8 1 C8.33 3.97 8.66 6.94 9 10 C6.8480563 6.77208445 6.79913557 5.71599191 7 2 C6.34 2 5.68 2 5 2 C5.66 5.3 6.32 8.6 7 12 C3.09618178 8.09618178 3.43755817 6.33820964 3 1 C2.01 0.67 1.02 0.34 0 0 Z " fill="#FC6A5D" transform="translate(195,716)"/>
<path d="M0 0 C0.66 0.33 1.32 0.66 2 1 C1.34 2.32 0.68 3.64 0 5 C1.32 5.33 2.64 5.66 4 6 C-1.27315333 5.5547115 -6.01770224 4.91626837 -11 3 C-11 2.34 -11 1.68 -11 1 C-7.37 1.33 -3.74 1.66 0 2 C0 1.34 0 0.68 0 0 Z " fill="#FD493A" transform="translate(608,123)"/>
<path d="M0 0 C4.10899581 1.12795963 8.07561214 2.33510818 12 4 C8.20546564 6.58028336 5.36096226 5.77874326 1 5 C-0.32 5 -1.64 5 -3 5 C-2 3 -2 3 0 0 Z " fill="#FE6557" transform="translate(359,119)"/>
<path d="M0 0 C0.33 0.66 0.66 1.32 1 2 C0.07421875 4.34765625 0.07421875 4.34765625 -1.3125 7.0625 C-1.98732422 8.41021484 -1.98732422 8.41021484 -2.67578125 9.78515625 C-4 12 -4 12 -6 13 C-6 10.69 -6 8.38 -6 6 C-5.34 6 -4.68 6 -4 6 C-3.71125 5.38125 -3.4225 4.7625 -3.125 4.125 C-2 2 -2 2 0 0 Z " fill="#FC786C" transform="translate(165,305)"/>
<path d="M0 0 C2.64 0 5.28 0 8 0 C8.33 0.66 8.66 1.32 9 2 C8.34 2 7.68 2 7 2 C7 2.66 7 3.32 7 4 C10.3 3.67 13.6 3.34 17 3 C13.00547208 5.66301861 9.69874395 5.84758428 5 5 C1.9375 2.5 1.9375 2.5 0 0 Z " fill="#FBA399" transform="translate(623,132)"/>
<path d="M0 0 C0.66 0 1.32 0 2 0 C2 0.66 2 1.32 2 2 C2.99 2.33 3.98 2.66 5 3 C5.99 3.66 6.98 4.32 8 5 C8 5.66 8 6.32 8 7 C1.375 7.125 1.375 7.125 -2 6 C-2 5.34 -2 4.68 -2 4 C-1.34 4 -0.68 4 0 4 C0 2.68 0 1.36 0 0 Z " fill="#FDA69E" transform="translate(520,105)"/>
<path d="M0 0 C0.66 0.33 1.32 0.66 2 1 C1.38125 1.721875 0.7625 2.44375 0.125 3.1875 C-1.83666353 5.78381938 -2.95316 7.94671666 -4 11 C-2.35 10.34 -0.7 9.68 1 9 C0.01 10.32 -0.98 11.64 -2 13 C-3.65 12.67 -5.3 12.34 -7 12 C-6.21331482 10.37258256 -5.4204759 8.74813869 -4.625 7.125 C-4.18414062 6.22007812 -3.74328125 5.31515625 -3.2890625 4.3828125 C-2 2 -2 2 0 0 Z " fill="#FD4634" transform="translate(188,233)"/>
<path d="M0 0 C5.66442374 0.36504064 10.00703705 1.0554321 15 4 C11.21180727 5.43410153 8.93478721 4.51009497 5.25 3.0625 C3.77273438 2.49208984 3.77273438 2.49208984 2.265625 1.91015625 C1.51796875 1.60980469 0.7703125 1.30945313 0 1 C0 0.67 0 0.34 0 0 Z " fill="#FB4635" transform="translate(579,114)"/>
<path d="M0 0 C0.33 0 0.66 0 1 0 C1.08126087 2.08268593 1.13930839 4.16628658 1.1875 6.25 C1.23970703 7.99023438 1.23970703 7.99023438 1.29296875 9.765625 C1 13 1 13 -2 17 C-2 13.7 -2 10.4 -2 7 C-1.67 7 -1.34 7 -1 7 C-0.67 4.69 -0.34 2.38 0 0 Z " fill="#FE412E" transform="translate(888,456)"/>
<path d="M0 0 C0.99 0 1.98 0 3 0 C3.33 0.66 3.66 1.32 4 2 C4.99 2.66 5.98 3.32 7 4 C2.25 7 2.25 7 0 7 C0 4.69 0 2.38 0 0 Z " fill="#FD5243" transform="translate(117,493)"/>
<path d="M0 0 C3.3 0.33 6.6 0.66 10 1 C8 4 8 4 4.875 4.6875 C3.92625 4.790625 2.9775 4.89375 2 5 C1.34 3.35 0.68 1.7 0 0 Z " fill="#FE6152" transform="translate(236,184)"/>
<path d="M0 0 C2.29013653 3.4352048 2.17842973 4.985331 2 9 C1.34 8.01 0.68 7.02 0 6 C-0.99 8.64 -1.98 11.28 -3 14 C-4.10084497 9.59662012 -3.7915332 8.73201586 -2.0625 4.75 C-1.68222656 3.85796875 -1.30195312 2.9659375 -0.91015625 2.046875 C-0.60980469 1.37140625 -0.30945313 0.6959375 0 0 Z " fill="#FD4735" transform="translate(888,473)"/>
<path d="M0 0 C0.515625 0.37125 1.03125 0.7425 1.5625 1.125 C1.5625 1.785 1.5625 2.445 1.5625 3.125 C-2.0675 3.125 -5.6975 3.125 -9.4375 3.125 C-9.4375 2.465 -9.4375 1.805 -9.4375 1.125 C-3.0375 -1.09038462 -3.0375 -1.09038462 0 0 Z " fill="#FE5C4E" transform="translate(534.4375,100.875)"/>
<path d="M0 0 C1.89551022 -0.05441656 3.7914792 -0.09298035 5.6875 -0.125 C6.74324219 -0.14820312 7.79898438 -0.17140625 8.88671875 -0.1953125 C12.02251859 0.00141271 14.17645373 0.66942346 17 2 C17 2.33 17 2.66 17 3 C11.08739655 3.25706972 5.76081841 2.2982126 0 1 C0 0.67 0 0.34 0 0 Z " fill="#FB3022" transform="translate(535,110)"/>
<path d="M0 0 C0.66 0.33 1.32 0.66 2 1 C2 1.99 2 2.98 2 4 C-1.75 6 -1.75 6 -4 6 C-5.34882408 6.63474075 -6.6846659 7.29848848 -8 8 C-5.58443874 4.80800833 -3.31996462 2.25283313 0 0 Z " fill="#FDEFEE" transform="translate(164,302)"/>
<path d="M0 0 C0.66 0.33 1.32 0.66 2 1 C2 2.65 2 4.3 2 6 C3.65 6 5.3 6 7 6 C5.68 6.99 4.36 7.98 3 9 C-0.16115776 7.63016497 -0.9927092 7.0109362 -3 4 C-1.68 4.33 -0.36 4.66 1 5 C0.67 3.35 0.34 1.7 0 0 Z " fill="#FCDEDD" transform="translate(780,233)"/>
<path d="M0 0 C1.32 0.66 2.64 1.32 4 2 C1.80044684 4.52948613 0.27129522 5.36684609 -3 6 C-3.99 6.495 -3.99 6.495 -5 7 C-3.70700306 4.11562221 -2.34058637 2.12780579 0 0 Z " fill="#FC6154" transform="translate(180,245)"/>
<path d="M0 0 C1.04449911 3.13349732 0.93423645 3.98968256 0 7 C1.32 6.67 2.64 6.34 4 6 C2.75 7.5 2.75 7.5 1 9 C-0.32 9 -1.64 9 -3 9 C-2.01 6.03 -1.02 3.06 0 0 Z " fill="#FD4233" transform="translate(861,615)"/>
<path d="M0 0 C0 2.83967231 -0.40267181 5.23735711 -1 8 C-3.31 6.02 -5.62 4.04 -8 2 C-7.01 2 -6.02 2 -5 2 C-3.31763529 1.37400383 -1.6476038 0.71247732 0 0 Z " fill="#FD4A3B" transform="translate(149,309)"/>
<path d="M0 0 C0.99 0.33 1.98 0.66 3 1 C3 2.98 3 4.96 3 7 C0 6 0 6 -2 5 C-1.34 3.35 -0.68 1.7 0 0 Z " fill="#FE6456" transform="translate(610,123)"/>
<path d="M0 0 C0.66 0.33 1.32 0.66 2 1 C2.33 1.99 2.66 2.98 3 4 C1.56163249 3.88541307 0.12429034 3.75790884 -1.3125 3.625 C-2.11300781 3.55539063 -2.91351562 3.48578125 -3.73828125 3.4140625 C-6 3 -6 3 -9 1 C-7.700625 1.020625 -6.40125 1.04125 -5.0625 1.0625 C-3.70834367 1.08399454 -2.35243917 1.07148199 -1 1 C-0.67 0.67 -0.34 0.34 0 0 Z " fill="#FD9F96" transform="translate(515,120)"/>
<path d="M0 0 C1.859375 0.24609375 1.859375 0.24609375 4 1 C5.265625 2.84765625 5.265625 2.84765625 6.25 5.0625 C6.75273438 6.16271484 6.75273438 6.16271484 7.265625 7.28515625 C7.50796875 7.85105469 7.7503125 8.41695312 8 9 C6.68 9 5.36 9 4 9 C3.71125 7.88625 3.4225 6.7725 3.125 5.625 C2.30758671 1.99708908 2.30758671 1.99708908 0 0 Z " fill="#FC4634" transform="translate(778,230)"/>
<path d="M0 0 C0 3 0 3 -1.53125 4.60546875 C-2.1809375 5.12753906 -2.830625 5.64960937 -3.5 6.1875 C-4.1496875 6.71730469 -4.799375 7.24710938 -5.46875 7.79296875 C-5.9740625 8.19128906 -6.479375 8.58960938 -7 9 C-7 6 -7 6 -5.46875 4.39453125 C-4.49421875 3.61142578 -4.49421875 3.61142578 -3.5 2.8125 C-2.8503125 2.28269531 -2.200625 1.75289062 -1.53125 1.20703125 C-1.0259375 0.80871094 -0.520625 0.41039062 0 0 Z " fill="#FE4A3A" transform="translate(478,651)"/>
<path d="M0 0 C3.3 0 6.6 0 10 0 C9.67 0.66 9.34 1.32 9 2 C6.35139573 2.59355614 3.70802678 2.74209269 1 3 C0.67 2.01 0.34 1.02 0 0 Z " fill="#FC958C" transform="translate(228,191)"/>
<path d="M0 0 C3 1 3 1 4 3 C0.7 3.33 -2.6 3.66 -6 4 C-2 1 -2 1 0 0 Z " fill="#FCEAE9" transform="translate(323,136)"/>
<path d="M0 0 C0.99 0.33 1.98 0.66 3 1 C2.01 1.66 1.02 2.32 0 3 C1.32 3.99 2.64 4.98 4 6 C1.69 5.67 -0.62 5.34 -3 5 C-3 4.01 -3 3.02 -3 2 C-2.01 1.34 -1.02 0.68 0 0 Z " fill="#FD4938" transform="translate(575,113)"/>
<path d="M0 0 C1.11375 0.598125 2.2275 1.19625 3.375 1.8125 C4.00148438 2.14894531 4.62796875 2.48539063 5.2734375 2.83203125 C7 4 7 4 9 7 C8.46375 6.71125 7.9275 6.4225 7.375 6.125 C4.64719516 4.83288192 1.87387282 3.91441408 -1 3 C-0.67 2.01 -0.34 1.02 0 0 Z " fill="#FE4636" transform="translate(671,154)"/>
<path d="M0 0 C0.66 0.33 1.32 0.66 2 1 C1.67 1.99 1.34 2.98 1 4 C-1.5625 5.1875 -1.5625 5.1875 -4 6 C-4 4.68 -4 3.36 -4 2 C-2.125 0.9375 -2.125 0.9375 0 0 Z " fill="#FE4A3A" transform="translate(329,130)"/>
<path d="M0 0 C0.66 0.33 1.32 0.66 2 1 C0.5437455 1.67119549 -0.91507867 2.33681807 -2.375 3 C-3.59316406 3.556875 -3.59316406 3.556875 -4.8359375 4.125 C-7 5 -7 5 -9 5 C-8.34 3.68 -7.68 2.36 -7 1 C-7 1.66 -7 2.32 -7 3 C-5.88625 2.484375 -4.7725 1.96875 -3.625 1.4375 C-2.42875 0.963125 -1.2325 0.48875 0 0 Z " fill="#FE4533" transform="translate(857,614)"/>
<path d="M0 0 C0.33 1.32 0.66 2.64 1 4 C-1.31 4.66 -3.62 5.32 -6 6 C-4.75453595 2.26360784 -3.36595047 1.81243487 0 0 Z " fill="#FE6D61" transform="translate(190,238)"/>
<path d="M0 0 C0.66 0.66 1.32 1.32 2 2 C-2.75 6.875 -2.75 6.875 -5 8 C-3.62845496 5.04590299 -2.01136276 2.55991624 0 0 Z " fill="#FD4939" transform="translate(727,622)"/>
<path d="M0 0 C0.66 0.33 1.32 0.66 2 1 C0.02 3.31 -1.96 5.62 -4 8 C-4.66 7.67 -5.32 7.34 -6 7 C-4.02 4.69 -2.04 2.38 0 0 Z " fill="#FE4433" transform="translate(384,385)"/>
<path d="M0 0 C0.99 0.99 1.98 1.98 3 3 C2.01 3.99 1.02 4.98 0 6 C-0.66 5.67 -1.32 5.34 -2 5 C-1.34 3.35 -0.68 1.7 0 0 Z " fill="#FD5F51" transform="translate(167,262)"/>
<path d="M0 0 C0.99 0.33 1.98 0.66 3 1 C2.01 1 1.02 1 0 1 C0 0.67 0 0.34 0 0 Z M-2 1 C-1.34 1.33 -0.68 1.66 0 2 C-1.28965176 3.37562854 -2.62689293 4.70766393 -4 6 C-4.66 6 -5.32 6 -6 6 C-4.25 2.125 -4.25 2.125 -2 1 Z " fill="#FE4F40" transform="translate(212,258)"/>
<path d="M0 0 C2 1 2 1 3.125 4.0625 C3.41375 5.031875 3.7025 6.00125 4 7 C0.83884224 5.63016497 0.0072908 5.0109362 -2 2 C-1.34 1.34 -0.68 0.68 0 0 Z " fill="#FBF1F1" transform="translate(774,230)"/>
</svg>
