<svg version="1.1" id="Layer_1" xmlns="http://www.w3.org/2000/svg" xmlns:xlink="http://www.w3.org/1999/xlink" x="0px" y="0px" width="100%" viewBox="0 0 669 648" enable-background="new 0 0 669 648" xml:space="preserve">

<path fill="#FD5A4B" opacity="1.000000" stroke="none" d="
M311.455048,568.819214 
	C310.341583,568.243469 309.264587,567.259888 308.108887,567.156555 
	C298.857880,566.329224 289.528351,566.120972 280.348663,564.829102 
	C271.211853,563.543213 262.206970,561.284851 253.171799,559.326050 
	C248.469513,558.306641 243.865616,556.810974 239.145844,555.900940 
	C234.385971,554.983154 229.674805,554.521362 226.951736,549.501953 
	C226.249588,548.207642 223.955551,547.748291 222.355865,546.982483 
	C221.615707,546.628174 220.616867,546.664795 220.023880,546.174927 
	C211.883423,539.449951 200.566483,539.132324 192.422501,532.533325 
	C187.304153,528.386047 182.242706,524.115540 177.577942,519.475769 
	C172.418350,514.343872 167.343231,509.459961 159.544403,508.875488 
	C158.377899,508.788055 156.630188,508.005157 156.263016,507.095337 
	C154.119537,501.783997 149.531036,501.192780 144.748917,500.722656 
	C142.901001,497.679657 145.556137,492.765533 140.424423,490.575378 
	C140.135803,492.148193 139.913132,493.361633 139.291046,494.625671 
	C138.796326,494.340607 138.700989,494.005005 138.957199,494.907043 
	C138.054794,494.799866 138.640274,494.869385 139.225800,494.938904 
	C138.825897,495.437653 138.425964,495.936432 138.505630,495.837067 
	C134.592773,491.436951 130.768692,487.135895 126.943016,482.836243 
	C126.722244,482.588104 126.459892,482.372467 126.265182,482.106354 
	C119.404724,472.731781 111.366913,463.987518 105.929558,453.848755 
	C92.740669,429.256104 80.674133,404.019897 80.041054,375.227417 
	C79.982315,372.556152 82.130165,369.900299 82.469940,367.140778 
	C82.934525,363.367645 82.782547,359.495758 82.606285,355.679535 
	C82.548492,354.428101 80.174377,353.016907 83.420395,352.374847 
	C83.790665,352.301605 84.244301,347.950714 83.444611,347.422577 
	C78.163048,343.934692 80.330063,338.783691 79.980156,334.223877 
	C79.825058,332.202698 79.953987,330.159760 79.953987,328.126678 
	C80.631348,328.108582 81.308701,328.090454 81.986061,328.072327 
	C81.986061,330.013672 81.734520,331.998291 82.058784,333.883881 
	C82.365906,335.669861 83.276917,337.351959 83.922348,339.079742 
	C84.400635,338.942810 84.878929,338.805908 85.357216,338.669006 
	C85.998215,327.982147 86.639206,317.295288 87.304260,306.207367 
	C86.246750,306.041901 85.012871,305.848846 83.358238,305.589966 
	C83.500259,302.973663 83.695831,300.304352 83.749588,297.632202 
	C83.761040,297.063080 83.393600,296.126251 82.968712,295.963104 
	C77.760468,293.963501 78.679672,289.283966 78.492462,285.341156 
	C77.830345,271.395813 80.577225,257.885651 83.980858,244.448563 
	C85.136871,239.884766 88.537941,242.560608 90.830505,241.723770 
	C91.303612,243.292984 92.393677,244.971466 92.138588,246.411713 
	C91.235039,251.513290 91.008644,256.218506 96.025246,260.121948 
	C102.584709,236.903671 113.943207,216.544296 127.420563,196.548676 
	C131.278015,191.616898 134.737885,187.178040 138.197739,182.739182 
	C137.648865,182.331757 137.099991,181.924332 136.551102,181.516891 
	C133.311035,185.820175 130.070953,190.123459 126.830872,194.426743 
	C120.330299,197.334259 116.947685,203.210648 112.929977,208.596939 
	C111.065987,211.095871 108.109520,212.779892 105.011589,214.778900 
	C103.236694,213.466187 102.098534,212.207901 100.960373,210.949615 
	C103.761719,204.390854 106.563057,197.832092 109.981682,191.139160 
	C111.392029,190.523209 112.185081,190.041412 113.188248,189.291382 
	C113.635002,188.674942 113.871643,188.326767 114.072945,188.007980 
	C114.037605,188.037384 114.101456,188.103546 114.101456,188.103546 
	C120.157524,185.229324 124.967239,181.842194 128.945694,175.537567 
	C133.696030,168.009766 138.445862,159.534302 147.019791,154.855576 
	C148.665268,153.957657 149.660934,151.929016 151.086380,150.557098 
	C156.514160,145.333191 161.235428,138.727875 167.647583,135.337067 
	C175.758118,131.048157 182.088440,124.514160 190.046646,120.282379 
	C194.507721,117.910187 200.461349,116.775719 203.249451,113.160782 
	C208.665588,106.138466 218.388977,107.449615 223.725800,100.747261 
	C225.147430,98.961891 228.957474,99.129028 231.628479,98.267960 
	C233.130661,97.783691 234.546036,97.030159 235.586151,95.416313 
	C233.460754,95.997467 231.335358,96.578621 229.209961,97.159775 
	C229.048233,96.827255 228.886505,96.494736 228.724777,96.162216 
	C231.780899,94.399643 234.837006,92.637077 237.893127,90.874512 
	C237.730118,90.463402 237.567123,90.052292 237.404114,89.641182 
	C234.224243,90.527519 231.044373,91.413849 227.457550,91.969589 
	C227.036697,90.810524 227.022766,89.982040 227.008820,89.153564 
	C237.071976,86.082970 247.138031,83.021866 257.196960,79.937469 
	C261.687073,78.560646 266.128693,77.012230 270.655487,75.772255 
	C274.613251,74.688141 278.627655,73.379166 282.673676,73.144234 
	C289.780518,72.731583 296.930664,73.063721 304.808533,73.308846 
	C306.748840,73.900047 307.943237,74.266312 309.286255,74.678139 
	C307.524872,77.210922 307.649719,78.510880 310.838379,78.008179 
	C317.833496,79.210495 324.906403,81.582481 331.791168,81.124756 
	C335.265961,80.893730 339.876343,84.290176 343.159515,79.685524 
	C343.627716,79.028862 346.505249,79.765236 348.111298,80.314323 
	C351.173065,81.361069 354.016266,83.242310 357.134888,83.896172 
	C378.373596,88.349144 399.676453,92.496399 420.912445,96.961868 
	C423.720642,97.552376 426.274078,99.372955 428.928223,100.659477 
	C429.366760,100.872040 429.692200,101.504730 430.109772,101.546768 
	C444.555481,103.000725 456.096222,112.063744 469.969574,116.936172 
	C472.400269,117.156273 474.254486,116.950905 476.108673,116.745529 
	C478.691559,117.847214 481.454742,118.658531 483.812531,120.122704 
	C486.894470,122.036552 489.771179,124.332390 492.530640,126.703163 
	C498.038849,131.435562 503.382019,136.359421 508.839844,141.151276 
	C514.768616,146.356537 520.799194,151.447098 526.668945,156.717346 
	C527.897156,157.820114 528.617310,159.488739 529.901672,161.488281 
	C532.164429,163.011398 534.097046,163.942825 536.029724,164.874237 
	C539.246338,167.912262 543.238770,170.464127 545.512756,174.092850 
	C549.807190,180.945847 552.340637,188.982971 557.072388,195.456024 
	C560.916199,200.714355 561.689453,207.017548 565.928711,212.395874 
	C573.225342,221.653122 577.319031,233.221115 577.465027,245.710999 
	C577.504089,249.056656 579.706421,252.353973 580.775269,255.718079 
	C581.596680,258.303558 583.174561,261.144318 582.718323,263.549500 
	C581.204651,271.528839 585.467957,278.319031 586.500671,285.736267 
	C587.267029,291.240662 589.070923,296.594116 589.981323,302.086334 
	C591.523987,311.392090 593.228455,320.717285 593.919800,330.103943 
	C594.525146,338.322052 594.290771,346.673218 593.621216,354.899994 
	C591.937073,375.591736 585.896790,395.324371 579.655579,414.997650 
	C578.458191,418.772095 578.012390,422.785858 577.235352,426.692291 
	C577.008606,427.832520 577.158386,429.184235 576.589050,430.098785 
	C569.924805,440.803802 567.927551,453.220734 563.693604,464.811981 
	C563.184753,466.205170 562.681152,467.962097 561.595398,468.722198 
	C555.873169,472.727570 555.004639,478.848267 554.172729,484.962555 
	C553.424500,490.461975 550.043396,493.605621 544.952087,493.804382 
	C536.241333,494.144531 529.625732,497.402985 522.709778,503.014557 
	C507.018951,515.746155 490.175751,527.065491 473.691986,538.805786 
	C469.959991,541.463867 465.784485,543.499451 461.809998,545.816101 
	C461.523438,545.983093 461.102264,546.024414 460.925964,546.260315 
	C453.334106,556.419739 441.274597,559.169434 430.566895,563.630432 
	C419.767029,568.129761 408.178223,570.878052 396.770142,573.734741 
	C385.228729,576.624695 373.536743,578.999695 361.816528,581.066101 
	C348.592896,583.397644 335.317474,582.584961 322.028992,580.865112 
	C315.661774,580.040955 308.948334,581.264648 302.744293,579.926331 
	C285.071930,576.114075 267.509705,571.723022 250.063202,566.975159 
	C245.106323,565.626221 240.693909,562.276550 236.031815,559.844360 
	C236.254166,559.098938 236.476532,558.353455 236.698883,557.608032 
	C241.011520,558.493530 245.362747,559.224915 249.629639,560.293152 
	C262.806641,563.592102 275.866180,567.425781 289.146973,570.215515 
	C295.246063,571.496704 301.754913,570.827148 308.912994,571.140747 
	C312.875122,571.696106 315.993073,572.231079 319.130737,572.597168 
	C338.210022,574.823120 357.318726,576.189270 376.297150,572.045471 
	C381.636810,570.879578 386.721466,568.545776 391.923096,566.747681 
	C391.685822,565.917664 391.448547,565.087585 391.211304,564.257507 
	C387.031494,565.140076 382.886932,566.523621 378.665955,566.820496 
	C357.760986,568.291443 336.838226,569.519104 315.912598,570.665466 
	C314.464813,570.744812 312.942627,569.466309 311.455048,568.819214 
M488.746002,430.116211 
	C488.928406,429.839417 489.110809,429.562622 489.869141,428.949127 
	C529.973572,383.650574 544.249939,331.503632 530.910400,272.286835 
	C513.897461,196.763138 445.220245,140.948441 367.822174,139.927917 
	C331.668549,139.451202 295.503052,139.770142 259.343811,139.925705 
	C253.217865,139.952042 246.969284,140.377625 240.992340,141.638092 
	C184.586487,153.533508 152.689545,210.758133 171.954147,265.176758 
	C184.797501,301.456635 217.490494,326.168243 255.769852,327.135376 
	C287.908997,327.947327 320.080597,327.469421 352.237701,327.586212 
	C354.898804,327.595856 357.570007,327.669312 360.217926,327.914185 
	C367.977264,328.631683 372.998291,333.126923 376.058258,339.968140 
	C379.136810,346.850983 377.882660,353.285522 373.473053,359.220276 
	C368.448364,365.982819 361.291840,367.203552 353.478394,367.175568 
	C318.651917,367.050751 283.824615,367.113586 248.998764,366.914337 
	C244.639374,366.889435 243.047012,368.228333 243.155914,372.595398 
	C243.371857,381.254822 243.223755,389.923828 243.190521,398.588745 
	C243.159927,406.566803 243.390976,406.834534 251.170059,406.835266 
	C284.997162,406.838348 318.824310,406.868744 352.651276,406.799286 
	C357.302185,406.789764 361.980835,406.514282 366.597748,405.956940 
	C403.048157,401.556732 427.238831,360.470123 413.475525,326.453735 
	C403.498322,301.794891 383.048920,288.126984 354.792053,287.903442 
	C322.966583,287.651672 291.137665,287.850708 259.310242,287.825684 
	C220.759781,287.795349 194.177292,246.303024 210.695374,211.443878 
	C220.978088,189.743591 238.863831,179.311401 262.714172,179.219269 
	C294.039856,179.098267 325.371643,179.571274 356.691162,179.119614 
	C388.066803,178.667145 416.825562,186.754654 443.528076,203.013397 
	C501.138214,238.091309 530.403931,310.945099 513.009094,375.879608 
	C507.908020,394.921783 499.430908,412.274567 487.931030,428.720520 
	C487.704315,428.938202 487.533295,429.193268 487.175781,429.932892 
	C487.234131,430.177704 487.292480,430.422546 487.350830,430.667358 
	C487.652832,430.530945 487.954834,430.394531 488.746002,430.116211 
M366.280243,483.836090 
	C383.754486,482.921204 400.460297,478.796417 416.444763,471.732117 
	C469.821533,448.142181 512.951538,378.985443 487.681000,304.923523 
	C470.694122,255.139099 423.345795,216.601685 370.867889,214.225159 
	C333.617615,212.538254 296.250336,213.240707 258.935699,213.279190 
	C246.900726,213.291611 238.725128,223.070999 239.767059,234.723801 
	C240.785828,246.117172 248.713959,252.953857 261.297760,252.979050 
	C293.123749,253.042770 324.950806,252.873886 356.775360,253.096039 
	C364.222717,253.148026 371.796906,253.711609 379.083008,255.179794 
	C429.079346,265.254272 462.446533,313.579651 454.273651,363.654175 
	C446.605042,410.639069 405.977997,444.562744 357.521729,444.457642 
	C309.033325,444.352448 260.544739,444.174011 212.056854,444.290009 
	C206.948822,444.302216 205.649490,442.973969 205.688065,437.935883 
	C205.932953,405.944916 205.813614,373.951324 205.897827,341.958771 
	C205.907227,338.390594 205.344910,335.527283 201.852005,333.588043 
	C189.155960,326.539276 178.678619,316.873138 169.535858,305.675293 
	C168.914429,304.914185 167.944168,304.437836 166.509842,303.357239 
	C166.310852,305.656433 166.078430,307.091461 166.078049,308.526581 
	C166.063690,364.180023 166.070053,419.833496 166.075027,475.486938 
	C166.075775,483.843964 166.237518,484.007172 174.866455,484.000092 
	C238.351913,483.947968 301.837372,483.891785 366.280243,483.836090 
z" data-index="1" style="opacity: 1; visibility: visible; fill: rgb(145, 94, 255);"></path>
<path fill="#F75546" opacity="1.000000" stroke="none" d="
M596.758789,418.736359 
	C594.027649,422.225433 593.008362,427.214569 587.152649,426.860199 
	C587.265686,425.253326 587.365601,423.833374 587.498230,421.947601 
	C585.088257,422.380066 582.899109,422.772919 579.776001,423.333374 
	C581.729675,418.253754 579.871338,412.445282 585.908997,409.682953 
	C586.396423,409.459961 586.740723,408.229919 586.647034,407.535919 
	C585.416687,398.420074 590.756653,390.799774 592.248413,382.353607 
	C593.720520,374.018982 597.002747,366.015442 596.252258,357.197266 
	C595.883667,352.865265 597.409546,348.372009 598.078064,343.951721 
	C598.571045,343.995209 599.064026,344.038666 599.557068,344.082123 
	C599.795654,346.083740 600.034302,348.085358 600.272888,350.086975 
	C600.694702,350.158386 601.116455,350.229767 601.538269,350.301147 
	C603.185242,341.824860 604.832214,333.348602 606.479248,324.872314 
	C607.125916,324.858459 607.772644,324.844604 608.419312,324.830780 
	C609.259827,330.535278 610.419739,336.214081 610.881653,341.949066 
	C612.338684,360.038971 610.514526,377.870667 605.326172,395.250763 
	C602.980103,403.109741 599.778748,410.713409 596.758789,418.736359 
z" data-index="2" style="opacity: 1; visibility: visible; fill: rgb(145, 94, 255);"></path>

<path fill="#EC4637" opacity="1.000000" stroke="none" d="
M337.317108,71.261742 
	C335.851685,71.465828 334.386230,71.669907 332.468658,71.499969 
	C332.015167,70.471664 332.013824,69.817375 332.012482,69.163094 
	C351.389435,67.619911 370.442261,68.508331 388.049988,77.095543 
	C381.483185,77.095543 373.263611,79.378380 367.668457,76.521408 
	C360.572327,72.897995 353.862610,73.761261 346.159546,72.799805 
	C342.699371,72.169640 340.008240,71.715691 337.317108,71.261742 
z" data-index="4" style="opacity: 1; visibility: visible; fill: rgb(145, 94, 255);"></path>
<path fill="#EC4D3F" opacity="1.000000" stroke="none" d="
M120.585747,171.840424 
	C125.670837,167.192413 127.502129,159.580353 134.445877,156.625504 
	C134.607635,148.921600 142.449081,147.860718 146.187149,143.231262 
	C147.283417,141.873581 149.588486,141.491959 151.339539,140.662994 
	C151.634445,141.086716 151.929352,141.510437 152.224243,141.934158 
	C150.423523,144.451004 148.835144,147.158295 146.781540,149.448380 
	C141.035645,155.855896 135.204605,162.196564 129.164963,168.324936 
	C127.511185,170.003021 125.004402,170.840439 122.132805,172.004486 
	C121.112946,171.910370 120.849350,171.875397 120.585747,171.840424 
z" data-index="5" style="opacity: 1; visibility: visible; fill: rgb(145, 94, 255);"></path>
<path fill="#E64A3C" opacity="1.000000" stroke="none" d="
M476.094360,116.403519 
	C474.254486,116.950905 472.400269,117.156273 470.321014,117.147881 
	C469.062134,115.731949 468.216461,114.265846 466.962799,113.372147 
	C460.703979,108.910347 454.338013,104.598831 447.894867,100.155205 
	C452.933014,99.248993 457.671997,99.697289 461.738617,103.294220 
	C466.532684,107.534615 471.300720,111.804443 476.094360,116.403519 
z" data-index="6" style="opacity: 1; visibility: visible; fill: rgb(145, 94, 255);"></path>
<path fill="#DF3C2D" opacity="1.000000" stroke="none" d="
M337.278717,71.698700 
	C340.008240,71.715691 342.699371,72.169640 345.700226,72.804779 
	C334.462097,74.424316 322.914215,75.862663 311.102356,77.654602 
	C307.649719,78.510880 307.524872,77.210922 309.286255,74.678139 
	C307.943237,74.266312 306.748840,73.900047 305.273315,73.368538 
	C313.761658,73.412132 322.530884,73.730354 331.300720,73.746269 
	C333.279602,73.749863 335.260406,72.700378 337.278717,71.698700 
z" data-index="7" style="opacity: 1; visibility: visible; fill: rgb(145, 94, 255);"></path>
<path fill="#E34538" opacity="1.000000" stroke="none" d="
M226.660553,89.209641 
	C227.022766,89.982040 227.036697,90.810524 227.063049,92.053497 
	C221.589890,98.139931 214.039597,99.779686 207.133011,102.675362 
	C206.277679,103.033958 205.406387,103.354538 204.256500,103.168961 
	C210.433243,96.648956 218.618271,93.340179 226.660553,89.209641 
z" data-index="8" style="opacity: 1; visibility: visible; fill: rgb(145, 94, 255);"></path>
<path fill="#E94B3E" opacity="1.000000" stroke="none" d="
M421.827148,86.181595 
	C425.549103,88.249229 428.879425,90.215126 432.209747,92.181015 
	C431.915100,92.784523 431.620453,93.388031 431.325806,93.991531 
	C423.959320,91.726860 416.592834,89.462189 409.226318,87.197517 
	C409.274323,86.824966 409.322327,86.452415 409.370331,86.079865 
	C413.392059,86.079865 417.413788,86.079865 421.827148,86.181595 
z" data-index="9" style="opacity: 1; visibility: visible; fill: rgb(145, 94, 255);"></path>
<path fill="#DF4C3F" opacity="1.000000" stroke="none" d="
M120.303925,171.990082 
	C120.849350,171.875397 121.112946,171.910370 121.770462,172.008194 
	C119.234978,177.272156 116.305588,182.473267 113.738831,187.888947 
	C114.101456,188.103546 114.037605,188.037384 113.650848,188.005371 
	C113.168785,188.502106 113.073463,189.030869 112.978142,189.559616 
	C112.185081,190.041412 111.392029,190.523209 110.300125,191.002258 
	C110.698830,183.308777 114.341095,177.182632 120.303925,171.990082 
z" data-index="10" style="opacity: 1; visibility: visible; fill: rgb(145, 94, 255);"></path>
<path fill="#E2493B" opacity="1.000000" stroke="none" d="
M404.181396,85.986893 
	C399.559540,84.386154 395.271210,82.817345 390.465485,81.059280 
	C394.367188,76.293869 398.139709,78.651886 401.874359,79.306892 
	C406.099945,80.047997 404.463837,83.621964 405.494843,85.898331 
	C405.168182,85.938492 404.841553,85.978653 404.181396,85.986893 
z" data-index="11" style="opacity: 1; visibility: visible; fill: rgb(145, 94, 255);"></path>
<path fill="#DF3C2D" opacity="1.000000" stroke="none" d="
M331.552612,69.097633 
	C332.013824,69.817375 332.015167,70.471664 332.024597,71.453033 
	C325.500885,71.780121 318.969086,71.780121 312.437286,71.780121 
	C312.394989,71.241158 312.352661,70.702194 312.310333,70.163231 
	C318.571136,69.786209 324.831970,69.409187 331.552612,69.097633 
z" data-index="12" style="opacity: 1; visibility: visible; fill: rgb(145, 94, 255);"></path>
<path fill="#E24637" opacity="1.000000" stroke="none" d="
M603.725586,312.886841 
	C604.608887,311.536835 605.344849,310.571564 606.080811,309.606293 
	C606.495483,309.726471 606.910156,309.846619 607.324829,309.966797 
	C607.324829,314.137512 607.324829,318.308258 607.324829,322.478973 
	C606.669434,322.574768 606.014038,322.670532 605.358643,322.766327 
	C604.765198,319.601410 604.171753,316.436493 603.725586,312.886841 
z" data-index="13" style="opacity: 1; visibility: visible; fill: rgb(145, 94, 255);"></path>
<path fill="#E14335" opacity="1.000000" stroke="none" d="
M180.166702,119.280151 
	C177.415787,123.133781 174.170349,126.048180 169.221497,125.727211 
	C168.912506,125.251305 168.603516,124.775398 168.294510,124.299492 
	C171.561401,122.232178 174.828293,120.164856 178.673309,118.176926 
	C179.556534,118.597588 179.861618,118.938873 180.166702,119.280151 
z" data-index="14" style="opacity: 1; visibility: visible; fill: rgb(145, 94, 255);"></path>

<path fill="#C73B2F" opacity="1.000000" stroke="none" d="
M180.446106,119.083878 
	C179.861618,118.938873 179.556534,118.597588 178.985535,118.038422 
	C186.326859,110.750412 188.154297,109.719627 192.769745,110.075645 
	C188.642853,113.095009 184.684174,115.991302 180.446106,119.083878 
z" data-index="16" style="opacity: 1; visibility: visible; fill: rgb(145, 94, 255);"></path>
<path fill="#E6483B" opacity="1.000000" stroke="none" d="
M100.640778,211.004608 
	C102.098534,212.207901 103.236694,213.466187 104.662659,214.856964 
	C103.823296,216.754791 102.696129,218.520096 101.568954,220.285416 
	C101.020325,220.144714 100.471695,220.004028 99.923065,219.863327 
	C103.868324,216.702515 93.384537,214.397934 100.640778,211.004608 
z" data-index="17" style="opacity: 1; visibility: visible; fill: rgb(145, 94, 255);"></path>
<path fill="#E34334" opacity="1.000000" stroke="none" d="
M536.196045,164.563324 
	C534.097046,163.942825 532.164429,163.011398 530.104858,161.811035 
	C531.258789,160.433182 532.539612,159.324265 533.820374,158.215363 
	C534.667725,160.227707 535.515076,162.240067 536.196045,164.563324 
z" data-index="18" style="opacity: 1; visibility: visible; fill: rgb(145, 94, 255);"></path>
<path fill="#E95144" opacity="1.000000" stroke="none" d="
M157.819916,136.803391 
	C156.819260,137.694244 156.087234,138.373505 155.302032,138.984406 
	C155.071274,139.163940 154.689758,139.149704 154.375809,139.217804 
	C153.758560,133.669479 155.651031,131.739563 162.009384,132.530273 
	C160.427429,134.150070 159.247849,135.357880 157.819916,136.803391 
z" data-index="19" style="opacity: 1; visibility: visible; fill: rgb(145, 94, 255);"></path>
<path fill="#020101" opacity="1.000000" stroke="none" d="
M488.282623,428.420197 
	C499.430908,412.274567 507.908020,394.921783 513.009094,375.879608 
	C530.403931,310.945099 501.138214,238.091309 443.528076,203.013397 
	C416.825562,186.754654 388.066803,178.667145 356.691162,179.119614 
	C325.371643,179.571274 294.039856,179.098267 262.714172,179.219269 
	C238.863831,179.311401 220.978088,189.743591 210.695374,211.443878 
	C194.177292,246.303024 220.759781,287.795349 259.310242,287.825684 
	C291.137665,287.850708 322.966583,287.651672 354.792053,287.903442 
	C383.048920,288.126984 403.498322,301.794891 413.475525,326.453735 
	C427.238831,360.470123 403.048157,401.556732 366.597748,405.956940 
	C361.980835,406.514282 357.302185,406.789764 352.651276,406.799286 
	C318.824310,406.868744 284.997162,406.838348 251.170059,406.835266 
	C243.390976,406.834534 243.159927,406.566803 243.190521,398.588745 
	C243.223755,389.923828 243.371857,381.254822 243.155914,372.595398 
	C243.047012,368.228333 244.639374,366.889435 248.998764,366.914337 
	C283.824615,367.113586 318.651917,367.050751 353.478394,367.175568 
	C361.291840,367.203552 368.448364,365.982819 373.473053,359.220276 
	C377.882660,353.285522 379.136810,346.850983 376.058258,339.968140 
	C372.998291,333.126923 367.977264,328.631683 360.217926,327.914185 
	C357.570007,327.669312 354.898804,327.595856 352.237701,327.586212 
	C320.080597,327.469421 287.908997,327.947327 255.769852,327.135376 
	C217.490494,326.168243 184.797501,301.456635 171.954147,265.176758 
	C152.689545,210.758133 184.586487,153.533508 240.992340,141.638092 
	C246.969284,140.377625 253.217865,139.952042 259.343811,139.925705 
	C295.503052,139.770142 331.668549,139.451202 367.822174,139.927917 
	C445.220245,140.948441 513.897461,196.763138 530.910400,272.286835 
	C544.249939,331.503632 529.973572,383.650574 489.332672,428.896210 
	C488.625031,428.702271 488.453827,428.561218 488.282623,428.420197 
z" data-index="20" style="opacity: 1; visibility: visible; fill: rgb(255, 255, 255);"></path>
<path fill="#020101" opacity="1.000000" stroke="none" d="
M365.801514,483.836487 
	C301.837372,483.891785 238.351913,483.947968 174.866455,484.000092 
	C166.237518,484.007172 166.075775,483.843964 166.075027,475.486938 
	C166.070053,419.833496 166.063690,364.180023 166.078049,308.526581 
	C166.078430,307.091461 166.310852,305.656433 166.509842,303.357239 
	C167.944168,304.437836 168.914429,304.914185 169.535858,305.675293 
	C178.678619,316.873138 189.155960,326.539276 201.852005,333.588043 
	C205.344910,335.527283 205.907227,338.390594 205.897827,341.958771 
	C205.813614,373.951324 205.932953,405.944916 205.688065,437.935883 
	C205.649490,442.973969 206.948822,444.302216 212.056854,444.290009 
	C260.544739,444.174011 309.033325,444.352448 357.521729,444.457642 
	C405.977997,444.562744 446.605042,410.639069 454.273651,363.654175 
	C462.446533,313.579651 429.079346,265.254272 379.083008,255.179794 
	C371.796906,253.711609 364.222717,253.148026 356.775360,253.096039 
	C324.950806,252.873886 293.123749,253.042770 261.297760,252.979050 
	C248.713959,252.953857 240.785828,246.117172 239.767059,234.723801 
	C238.725128,223.070999 246.900726,213.291611 258.935699,213.279190 
	C296.250336,213.240707 333.617615,212.538254 370.867889,214.225159 
	C423.345795,216.601685 470.694122,255.139099 487.681000,304.923523 
	C512.951538,378.985443 469.821533,448.142181 416.444763,471.732117 
	C400.460297,478.796417 383.754486,482.921204 365.801514,483.836487 
z" data-index="21" style="opacity: 1; visibility: visible; fill: rgb(255, 255, 255);"></path>
<path fill="#000000" opacity="1.000000" stroke="none" d="
M139.184341,494.957031 
	C138.640274,494.869385 138.054794,494.799866 138.957199,494.907043 
	C138.700989,494.005005 138.796326,494.340607 138.990845,494.862427 
	C139.090057,495.048615 139.142914,494.975159 139.184341,494.957031 
z" data-index="22"></path>
<path fill="#000000" opacity="1.000000" stroke="none" d="
M113.188248,189.291382 
	C113.073463,189.030869 113.168785,188.502106 113.686188,187.975967 
	C113.871643,188.326767 113.635002,188.674942 113.188248,189.291382 
z" data-index="23"></path>

<path fill="#020101" opacity="1.000000" stroke="none" d="
M488.050751,430.061035 
	C487.954834,430.394531 487.652832,430.530945 487.350830,430.667358 
	C487.292480,430.422546 487.234131,430.177704 487.296875,429.709290 
	C487.560211,429.611786 487.702423,429.737885 488.050751,430.061035 
z" data-index="25" style="opacity: 1; visibility: hidden;"></path>
</svg>